<svg width="594" height="560" viewBox="0 0 594 560" fill="none" xmlns="http://www.w3.org/2000/svg">
<path d="M296.66 546.686C433.111 546.686 543.727 531.229 543.727 512.162C543.727 493.095 433.111 477.637 296.66 477.637C160.209 477.637 49.5938 493.095 49.5938 512.162C49.5938 531.229 160.209 546.686 296.66 546.686Z" fill="#EBEBEB"/>
<path d="M0 457.641L74.1651 457.301L148.33 457.173L296.66 456.931L444.991 457.173L519.156 457.301L593.321 457.641L519.156 457.997L444.991 458.11L296.66 458.352L148.33 458.11L74.1651 457.997L0 457.641Z" fill="#263238"/>
<path d="M151.961 216.893H82.8359V404.967H151.961V216.893Z" fill="#529799"/>
<path opacity="0.2" d="M151.961 216.893H82.8359V404.967H151.961V216.893Z" fill="black"/>
<path d="M510.5 216.893H441.375V404.967H510.5V216.893Z" fill="#529799"/>
<path opacity="0.2" d="M510.5 216.893H441.375V404.967H510.5V216.893Z" fill="black"/>
<path d="M441.388 84.5047H151.945V404.967H441.388V84.5047Z" fill="#529799"/>
<path opacity="0.2" d="M441.388 84.5047H151.945V404.967H441.388V84.5047Z" fill="black"/>
<g opacity="0.2">
<path d="M443.058 216.893H441.414V404.953H443.058V216.893Z" fill="black"/>
<path d="M152.769 216.893H151.125V404.953H152.769V216.893Z" fill="black"/>
<path d="M443.088 350.432H151.125V292.049H443.088V350.432ZM152.851 348.629H441.389V293.796H152.851V348.629Z" fill="black"/>
</g>
<g opacity="0.2">
<path d="M169.97 187.339C169.689 187.371 169.428 187.51 169.239 187.729C169.05 187.948 168.945 188.231 168.945 188.525C168.945 188.819 169.05 189.103 169.239 189.322C169.428 189.54 169.689 189.679 169.97 189.711C170.252 189.679 170.513 189.54 170.702 189.322C170.891 189.103 170.996 188.819 170.996 188.525C170.996 188.231 170.891 187.948 170.702 187.729C170.513 187.51 170.252 187.371 169.97 187.339Z" fill="black"/>
<path d="M171.931 332.552C171.65 332.584 171.389 332.723 171.2 332.942C171.011 333.161 170.906 333.444 170.906 333.738C170.906 334.032 171.011 334.316 171.2 334.534C171.389 334.753 171.65 334.892 171.931 334.924C172.213 334.892 172.474 334.753 172.663 334.534C172.852 334.316 172.957 334.032 172.957 333.738C172.957 333.444 172.852 333.161 172.663 332.942C172.474 332.723 172.213 332.584 171.931 332.552Z" fill="black"/>
<path d="M250.164 309.872C250.164 309.744 250.041 309.631 249.986 309.517C249.94 309.438 249.875 309.372 249.797 309.327C249.719 309.281 249.631 309.257 249.541 309.257C249.452 309.257 249.364 309.281 249.286 309.327C249.208 309.372 249.142 309.438 249.096 309.517C249.029 309.631 248.969 309.75 248.918 309.872C248.261 311.278 250.808 311.278 250.164 309.872Z" fill="black"/>
<path d="M135.895 335.535C135.895 335.421 135.785 335.293 135.716 335.18C135.67 335.1 135.605 335.035 135.527 334.989C135.449 334.943 135.361 334.92 135.271 334.92C135.182 334.92 135.094 334.943 135.016 334.989C134.938 335.035 134.873 335.1 134.826 335.18C134.758 335.293 134.703 335.421 134.648 335.535C134.004 336.941 136.552 336.941 135.895 335.535Z" fill="black"/>
<path d="M179.818 194.582C179.585 194.582 179.363 194.678 179.198 194.849C179.034 195.019 178.941 195.25 178.941 195.491C178.941 195.732 179.034 195.964 179.198 196.134C179.363 196.304 179.585 196.4 179.818 196.4C180.05 196.4 180.273 196.304 180.438 196.134C180.602 195.964 180.695 195.732 180.695 195.491C180.695 195.25 180.602 195.019 180.438 194.849C180.273 194.678 180.05 194.582 179.818 194.582Z" fill="black"/>
<path d="M118.884 286.624C118.673 286.651 118.478 286.758 118.336 286.924C118.195 287.09 118.117 287.304 118.117 287.526C118.117 287.747 118.195 287.961 118.336 288.127C118.478 288.293 118.673 288.4 118.884 288.427C119.096 288.4 119.291 288.293 119.432 288.127C119.574 287.961 119.652 287.747 119.652 287.526C119.652 287.304 119.574 287.09 119.432 286.924C119.291 286.758 119.096 286.651 118.884 286.624Z" fill="black"/>
<path d="M233.658 143.996C233.43 143.762 233.122 143.632 232.802 143.632C232.481 143.632 232.174 143.762 231.946 143.996C231.738 144.22 231.591 144.496 231.519 144.798C231.447 145.1 231.452 145.415 231.535 145.714C231.636 145.979 231.811 146.206 232.039 146.367C232.266 146.527 232.534 146.612 232.809 146.612C233.083 146.612 233.352 146.527 233.579 146.367C233.806 146.206 233.981 145.979 234.082 145.714C234.165 145.414 234.169 145.097 234.094 144.795C234.019 144.494 233.869 144.218 233.658 143.996Z" fill="black"/>
<path d="M181.518 325.835C181.289 325.602 180.982 325.471 180.662 325.471C180.341 325.471 180.034 325.602 179.805 325.835C179.598 326.056 179.451 326.33 179.378 326.63C179.306 326.929 179.312 327.243 179.395 327.539C179.498 327.8 179.673 328.022 179.899 328.179C180.125 328.336 180.39 328.42 180.662 328.42C180.933 328.42 181.199 328.336 181.424 328.179C181.65 328.022 181.825 327.8 181.928 327.539C182.014 327.243 182.021 326.928 181.949 326.628C181.877 326.328 181.728 326.054 181.518 325.835Z" fill="black"/>
<path d="M421.994 338.077C422.299 338.077 422.592 337.951 422.808 337.727C423.023 337.504 423.145 337.2 423.145 336.884C423.145 336.567 423.023 336.264 422.808 336.04C422.592 335.817 422.299 335.691 421.994 335.691C421.689 335.691 421.396 335.817 421.181 336.04C420.965 336.264 420.844 336.567 420.844 336.884C420.844 337.2 420.965 337.504 421.181 337.727C421.396 337.951 421.689 338.077 421.994 338.077Z" fill="black"/>
<path d="M352.502 179.642C352.783 179.61 353.044 179.471 353.233 179.253C353.422 179.034 353.527 178.75 353.527 178.456C353.527 178.162 353.422 177.879 353.233 177.66C353.044 177.441 352.783 177.302 352.502 177.27C352.22 177.302 351.96 177.441 351.77 177.66C351.581 177.879 351.477 178.162 351.477 178.456C351.477 178.75 351.581 179.034 351.77 179.253C351.96 179.471 352.22 179.61 352.502 179.642Z" fill="black"/>
<path d="M459.073 326.872C459.073 326.985 459.182 327.113 459.251 327.227C459.297 327.306 459.362 327.372 459.44 327.417C459.518 327.463 459.606 327.487 459.696 327.487C459.785 327.487 459.873 327.463 459.951 327.417C460.029 327.372 460.094 327.306 460.141 327.227C460.209 327.113 460.264 326.985 460.319 326.872C461.017 325.466 458.429 325.466 459.073 326.872Z" fill="black"/>
<path d="M317.577 255.366C317.805 255.599 318.113 255.73 318.433 255.73C318.753 255.73 319.061 255.599 319.289 255.366C319.499 255.143 319.648 254.867 319.72 254.565C319.792 254.262 319.785 253.946 319.7 253.647C319.597 253.387 319.421 253.164 319.196 253.007C318.97 252.851 318.705 252.767 318.433 252.767C318.161 252.767 317.896 252.851 317.67 253.007C317.445 253.164 317.269 253.387 317.166 253.647C317.085 253.946 317.08 254.262 317.152 254.563C317.224 254.864 317.371 255.141 317.577 255.366Z" fill="black"/>
</g>
<g opacity="0.2">
<path d="M152.852 350.432C152.852 350.432 225.743 365.174 297.073 365.174C368.403 365.174 441.377 350.432 441.377 350.432H152.852Z" fill="black"/>
</g>
<path d="M510.487 388.422H82.8359V404.953H510.487V388.422Z" fill="#37474F"/>
<path d="M175.42 404.967L157.848 442.275L140.193 479.782H124.812L130.524 442.275L136.208 404.967H175.42Z" fill="#37474F"/>
<path d="M136.207 404.967H175.433L164.764 427.59H132.77L136.207 404.967Z" fill="#263238"/>
<path d="M461.92 479.782H446.553L428.898 442.275L411.312 404.967H450.539L456.209 442.275L461.92 479.782Z" fill="#37474F"/>
<path d="M453.976 427.59H421.982L411.312 404.967H450.525L453.976 427.59Z" fill="#263238"/>
<path d="M465.535 324.344C464.275 320.41 397.122 228.397 392.534 226.636C392.014 226.394 361.991 248.549 361.991 248.549C360.759 250.267 303.7 237.756 303.7 237.756L303.125 309.134L407.066 306.847C407.066 306.847 421.104 315.368 433.951 322.37C441.854 326.63 448.853 330.323 450.853 330.891C456.085 332.254 466.809 328.249 465.535 324.344Z" fill="#AD6359"/>
<path d="M450.892 330.877C448.879 330.337 441.894 326.701 434.005 322.356C421.172 315.382 407.133 306.805 407.133 306.805L384 307.33L347.719 246.76C355.676 248.18 361.607 249.089 362.004 248.549C362.004 248.549 391.999 226.394 392.533 226.636C397.121 228.397 464.274 320.367 465.534 324.33C466.794 328.292 456.083 332.268 450.892 330.877Z" fill="white"/>
<path d="M466.138 324.457C464.769 320.424 397.37 228.482 392.658 226.664C390.878 225.954 376.223 235.37 361.992 248.549L405.56 307.827C405.56 307.827 445.745 329.911 451.114 331.331C456.482 332.751 467.467 328.491 466.138 324.457Z" fill="#529799"/>
<path d="M461.633 325.934C449.964 310.81 404.259 248.663 393.823 232.799C393.741 232.657 393.823 232.601 393.919 232.714C405.807 247.456 451.018 309.986 461.879 325.75C462.098 326.076 461.879 326.289 461.633 325.934Z" fill="#263238"/>
<path d="M443.581 327.88C442.283 326.199 441.335 324.257 440.795 322.177C440.255 320.097 440.136 317.924 440.445 315.794C440.979 311.957 442.916 308.479 445.855 306.08C445.951 306.08 446.074 306.18 445.992 306.265C443.435 309.11 441.837 312.738 441.437 316.604C441.037 320.47 441.857 324.367 443.773 327.71C443.795 327.736 443.806 327.77 443.803 327.805C443.801 327.84 443.785 327.872 443.759 327.894C443.734 327.917 443.701 327.928 443.667 327.925C443.634 327.923 443.603 327.906 443.581 327.88Z" fill="#263238"/>
<path d="M410.584 311.434C405.982 305.328 402.832 296.523 404.887 288.854C404.969 288.555 405.366 288.669 405.421 288.925C406.646 296.473 408.653 303.863 411.406 310.966C411.438 311.075 411.433 311.192 411.391 311.297C411.35 311.403 411.275 311.49 411.178 311.545C411.082 311.6 410.971 311.619 410.862 311.599C410.754 311.579 410.656 311.521 410.584 311.434Z" fill="#263238"/>
<path d="M415.819 314.786C411.217 308.679 408.067 299.874 410.121 292.205C410.203 291.907 410.601 292.021 410.642 292.276C411.88 299.822 413.886 307.21 416.627 314.317C416.672 314.427 416.676 314.55 416.639 314.662C416.602 314.775 416.526 314.869 416.426 314.928C416.325 314.986 416.208 315.003 416.096 314.977C415.984 314.951 415.885 314.883 415.819 314.786Z" fill="#263238"/>
<path d="M421.159 318.138C416.557 312.031 413.407 303.226 415.461 295.557C415.529 295.259 415.94 295.372 415.981 295.628C417.219 303.174 419.226 310.562 421.967 317.669C422.012 317.778 422.016 317.901 421.979 318.014C421.942 318.127 421.866 318.221 421.765 318.279C421.665 318.337 421.548 318.355 421.436 318.329C421.324 318.303 421.225 318.235 421.159 318.138Z" fill="#263238"/>
<path d="M426.445 321.489C421.83 315.382 418.693 306.577 420.748 298.894C420.748 298.61 421.227 298.724 421.268 298.979C422.5 306.527 424.506 313.916 427.253 321.021C427.298 321.13 427.302 321.253 427.265 321.366C427.228 321.478 427.152 321.573 427.052 321.631C426.952 321.689 426.835 321.707 426.723 321.68C426.611 321.654 426.512 321.586 426.445 321.489Z" fill="#263238"/>
<path d="M382.591 247.853C377.523 240.923 387.919 232.757 392.987 239.701C398.054 246.646 387.659 254.798 382.591 247.853Z" fill="#263238"/>
<path d="M407.969 323.25C409.667 316.661 408.544 309.531 408.257 302.828C408.237 302.681 408.185 302.541 408.104 302.419C408.024 302.297 407.916 302.196 407.791 302.124C407.666 302.052 407.527 302.012 407.384 302.006C407.241 302 407.099 302.029 406.969 302.09C406.95 302.066 406.926 302.047 406.898 302.033C406.871 302.02 406.842 302.013 406.812 302.013C406.781 302.013 406.752 302.02 406.725 302.033C406.697 302.047 406.673 302.066 406.654 302.09C401.528 306.85 397.697 312.922 395.546 319.7C394.369 323.676 394.82 329.527 399.655 330.678C404.134 331.714 406.969 327.099 407.969 323.25ZM403.244 327.426C396.327 331.913 396.848 321.944 397.834 319.047C398.503 317.191 399.29 315.384 400.189 313.636C402.11 310.049 404.203 306.565 406.462 303.197C406.462 306.506 406.627 309.787 406.695 313.139C406.777 317.016 407.065 324.954 403.244 327.426Z" fill="#263238"/>
<path d="M386.782 283.116C383.262 286.667 385.796 291.921 388.768 294.705C393.979 299.363 400.281 302.517 407.039 303.851C407.069 303.858 407.099 303.857 407.129 303.849C407.158 303.841 407.185 303.827 407.208 303.806C407.231 303.785 407.248 303.759 407.259 303.73C407.271 303.7 407.275 303.669 407.272 303.638C407.415 303.623 407.553 303.573 407.675 303.493C407.796 303.413 407.898 303.304 407.971 303.175C408.045 303.047 408.088 302.902 408.097 302.753C408.107 302.604 408.082 302.454 408.025 302.317C404.944 296.423 402.355 289.706 397.616 284.962C394.85 282.264 390.124 279.765 386.782 283.116ZM401.588 294.364C403.177 297.204 404.615 300.158 406.3 302.956C402.689 301.281 399.164 299.414 395.74 297.36C394.092 296.353 392.518 295.224 391.028 293.98C388.741 292.035 383.331 283.769 391.494 283.911C396 283.997 399.698 290.955 401.588 294.364Z" fill="#263238"/>
<path d="M300.55 215.871H253.901C253.901 215.871 205.101 191.557 165.793 201.314C120.732 212.548 114.966 271.229 148.645 291.978C191.322 318.28 381.234 313.181 381.234 313.181L340.146 241.036C340.146 241.036 276.992 227.246 219.728 229.249L300.536 240.61L300.55 215.871Z" fill="#263238"/>
<path d="M342.913 245.737C342.866 245.62 342.838 245.495 342.831 245.368L342.748 245.055C342.748 244.828 342.639 244.601 342.57 244.36C342.438 243.877 342.278 243.403 342.091 242.939C341.927 242.471 341.721 242.016 341.516 241.519C341.291 241.074 341.035 240.647 340.749 240.241C340.749 240.241 340.68 240.241 340.639 240.241C340.617 240.235 340.593 240.235 340.571 240.241C340.571 240.241 340.502 240.241 340.461 240.241C340.43 240.233 340.397 240.233 340.365 240.241C333.421 238.821 286.224 231.89 279.212 231.067C272.199 230.243 265.036 229.547 257.941 228.936C243.782 227.661 229.57 227.13 215.36 227.346C213.99 227.346 212.703 227.417 211.374 227.474C211.086 227.374 210.785 227.317 210.498 227.246C209.813 227.076 209.128 226.906 208.443 226.764C207.169 226.508 205.868 226.309 204.581 226.11C201.841 225.684 199.198 225.386 196.527 224.875C196.495 224.875 196.463 224.888 196.44 224.912C196.417 224.936 196.404 224.969 196.404 225.003C196.404 225.036 196.417 225.069 196.44 225.093C196.463 225.117 196.495 225.13 196.527 225.13C199.267 225.741 201.869 226.551 204.553 227.161C205.334 227.332 206.101 227.516 206.882 227.673C201.677 227.957 196.473 228.368 191.282 228.865C191.254 228.875 191.23 228.893 191.214 228.917C191.197 228.941 191.188 228.97 191.188 229C191.188 229.03 191.197 229.059 191.214 229.084C191.23 229.108 191.254 229.126 191.282 229.135C198.349 228.695 205.471 228.638 212.566 228.766C219.66 228.894 226.618 229.05 233.644 229.476C247.861 230.314 262.05 231.635 276.212 233.169C284.156 234.035 332.271 241.32 340.242 241.69H340.338C340.406 241.874 340.475 242.073 340.557 242.258C340.776 242.698 340.995 243.152 341.242 243.578C341.458 244.008 341.696 244.425 341.954 244.828C342.077 245.027 342.201 245.226 342.338 245.425L342.543 245.723C342.624 245.818 342.693 245.923 342.748 246.035C342.735 246.021 343.009 245.908 342.913 245.737Z" fill="#455A64"/>
<path d="M366.427 308.835C363.88 304.575 361.716 300.13 359.387 295.784C357.059 291.438 354.717 287.064 352.375 282.704C347.705 274.013 330.94 244.786 329.283 242.741C329.174 242.613 328.968 242.741 329.009 242.911C329.804 245.169 340.268 264.526 342.705 268.829C347.527 277.464 352.581 285.871 357.58 294.392C358.949 296.821 360.47 299.221 361.921 301.649C363.373 304.078 364.907 306.435 366.222 308.921C366.277 309.134 366.51 308.992 366.427 308.835Z" fill="#455A64"/>
<path d="M328.806 250.012C324.615 248.961 320.328 248.293 316.096 247.456C311.864 246.618 307.605 245.794 303.359 244.984C294.867 243.346 286.357 241.78 277.829 240.284C260.846 237.33 243.78 234.859 226.619 233.183C216.935 232.217 207.239 231.592 197.528 230.854C197.322 230.854 197.336 231.166 197.528 231.18C214.799 231.99 232.056 234.418 249.163 236.96C266.269 239.503 283.02 242.258 299.839 245.212C304.605 246.045 309.371 246.892 314.138 247.754C318.972 248.62 323.807 249.685 328.669 250.324C328.916 250.324 328.998 250.054 328.806 250.012Z" fill="#455A64"/>
<path d="M377.072 559.113C372.963 558.687 271.255 511.281 268.475 506.921C267.407 505.288 273.2 489.51 280.802 470.664C282.418 466.603 284.13 462.413 285.883 458.167C297.21 430.573 309.865 401.573 309.865 401.573L378.004 433.087L352.145 488.8L346.475 501.042C346.475 501.042 377.593 537.256 380.154 542.369C382.715 547.482 381.168 559.539 377.072 559.113Z" fill="#AD6359"/>
<path d="M377.071 559.113C372.962 558.687 271.253 511.281 268.473 506.921C267.186 504.919 276.006 482.054 285.813 458.167L352.075 488.8L346.405 501.042C346.405 501.042 377.523 537.256 380.084 542.369C382.645 547.482 381.166 559.539 377.071 559.113Z" fill="white"/>
<path d="M377.072 559.113C372.963 558.687 271.255 511.281 268.475 506.921C267.407 505.288 273.2 489.51 280.802 470.664L346.475 501.042C346.475 501.042 377.593 537.256 380.154 542.369C382.715 547.482 381.168 559.539 377.072 559.113Z" fill="#529799"/>
<path d="M377.466 554.213C360.606 545.834 291.81 513.667 274.525 506.723C274.388 506.723 274.347 506.723 274.525 506.822C291.07 515.514 360.099 547.098 377.384 554.512C377.685 554.654 377.795 554.398 377.466 554.213Z" fill="#263238"/>
<path d="M375.182 535.524C373.306 534.592 371.264 534.073 369.185 534C367.106 533.926 365.035 534.3 363.102 535.098C359.618 536.504 356.789 539.244 355.199 542.753C355.199 542.866 355.35 542.951 355.405 542.852C357.504 539.622 360.557 537.184 364.105 535.904C367.653 534.624 371.506 534.57 375.086 535.751C375.113 535.756 375.141 535.751 375.165 535.738C375.19 535.724 375.209 535.702 375.22 535.676C375.231 535.65 375.233 535.621 375.226 535.593C375.219 535.566 375.204 535.541 375.182 535.524Z" fill="#263238"/>
<path d="M352.253 505.885C345.473 502.604 336.475 501.411 329.722 505.231C329.462 505.373 329.722 505.757 329.928 505.743C337.298 505.281 344.695 505.638 351.993 506.808C352.107 506.831 352.225 506.809 352.324 506.747C352.423 506.684 352.497 506.585 352.529 506.469C352.562 506.354 352.551 506.23 352.5 506.122C352.449 506.013 352.361 505.929 352.253 505.885Z" fill="#263238"/>
<path d="M356.609 510.472C349.761 507.191 340.831 505.998 334.078 509.819C333.818 509.961 334.078 510.344 334.27 510.33C341.645 509.868 349.047 510.225 356.348 511.395C356.462 511.418 356.581 511.396 356.68 511.334C356.779 511.271 356.852 511.172 356.885 511.057C356.918 510.941 356.907 510.817 356.856 510.709C356.805 510.6 356.717 510.516 356.609 510.472Z" fill="#263238"/>
<path d="M360.949 515.059C354.169 511.778 345.17 510.585 338.418 514.392C338.158 514.548 338.418 514.931 338.61 514.917C345.985 514.455 353.386 514.812 360.688 515.982C360.802 516.005 360.921 515.983 361.02 515.921C361.119 515.858 361.192 515.759 361.225 515.644C361.257 515.528 361.247 515.404 361.196 515.296C361.145 515.188 361.057 515.103 360.949 515.059Z" fill="#263238"/>
<path d="M365.292 519.646C358.512 516.366 349.514 515.173 342.762 518.979C342.501 519.135 342.762 519.518 342.967 519.504C350.337 519.042 357.734 519.399 365.032 520.569C365.146 520.592 365.264 520.571 365.363 520.508C365.462 520.445 365.536 520.347 365.568 520.231C365.601 520.115 365.591 519.991 365.539 519.883C365.488 519.775 365.4 519.69 365.292 519.646Z" fill="#263238"/>
<path d="M286.129 491.953C278.459 488.402 273.131 500.758 280.815 504.308C288.499 507.859 293.813 495.503 286.129 491.953Z" fill="#263238"/>
<path d="M367.879 490.433C365.702 485.86 360.1 486.727 356.635 488.828C350.745 492.527 345.899 497.768 342.582 504.024C342.567 504.052 342.557 504.084 342.555 504.117C342.553 504.149 342.558 504.182 342.57 504.212C342.582 504.242 342.6 504.269 342.624 504.291C342.647 504.312 342.675 504.328 342.706 504.337C342.637 504.905 343.021 505.601 343.692 505.473C350.061 504.252 357.018 503.769 362.867 500.559C366.181 498.684 369.865 494.765 367.879 490.433ZM352.978 501.582C349.855 502.249 346.732 502.774 343.637 503.57C346.29 500.525 349.092 497.624 352.033 494.878C353.471 493.564 354.995 492.354 356.594 491.257C359.086 489.61 368.345 486.826 365.688 494.836C364.168 499.267 356.648 500.772 352.923 501.582H352.978Z" fill="#263238"/>
<path d="M324.438 498.755C329.916 502.462 336.86 503.57 343.106 505.345C343.749 505.53 344.201 504.876 344.174 504.294C344.204 504.291 344.233 504.279 344.259 504.262C344.284 504.244 344.305 504.22 344.32 504.192C344.335 504.165 344.343 504.134 344.344 504.102C344.344 504.07 344.338 504.039 344.325 504.01C341.538 497.48 337.146 491.823 331.587 487.607C328.3 485.221 322.78 483.844 320.247 488.218C317.85 492.35 321.205 496.583 324.438 498.755ZM322.055 492.805C320.069 484.582 329.067 488.189 331.423 490.05C332.925 491.283 334.343 492.621 335.669 494.055C338.371 497.05 340.921 500.188 343.311 503.456C340.298 502.391 337.216 501.596 334.162 500.616C330.533 499.551 323.15 497.335 322.055 492.805Z" fill="#263238"/>
<path d="M287.359 451.691L364.058 487.621C364.058 487.621 455.289 306.066 457.672 250.452C459.699 203.16 427.951 184.911 325.298 215.502L300.152 215.828V233.822C311.191 235.327 340.638 240.127 340.638 240.127C362.059 248.506 368.962 251.972 368.619 252.696C315.122 364.634 287.359 451.691 287.359 451.691Z" fill="#263238"/>
<path d="M381.111 232.785C378.015 237.046 375.153 241.505 372.413 246.05C355.978 238.452 338.022 234.063 320.19 231.777C315.149 231.142 310.086 230.669 305.001 230.357C304.795 230.357 304.809 230.683 305.001 230.698C323.046 232.008 340.879 235.526 358.128 241.178C362.908 242.712 367.579 244.473 372.29 246.22C369.003 251.673 365.894 257.269 362.922 262.893C357.365 273.416 352.363 284.244 347.938 295.33C345.473 301.465 343.076 307.643 340.953 313.92C340.953 314.104 341.186 314.218 341.254 314.048C350.623 292.395 360.845 271.206 371.92 250.481C375.043 244.629 378.303 238.863 381.357 232.97C381.467 232.814 381.22 232.558 381.111 232.785Z" fill="#455A64"/>
<path d="M365.675 468.406C361.196 466.603 356.868 464.345 352.499 462.299L339.337 456.179C330.571 452.117 300.275 439.136 297.769 438.483C297.604 438.483 297.522 438.696 297.645 438.781C299.59 440.102 319.135 449.12 323.559 451.08C332.406 455.014 341.364 458.65 350.253 462.442C352.8 463.507 355.361 464.515 357.922 465.552C360.484 466.588 363.072 467.54 365.579 468.719C365.729 468.733 365.825 468.463 365.675 468.406Z" fill="#455A64"/>
<path d="M380.729 240.98C374.689 252.895 369.539 265.364 364.294 277.677C359.048 289.99 353.98 302.26 349.036 314.601C339.202 339.275 330.044 364.222 321.561 389.445C316.74 403.646 312.234 418.075 307.865 432.476C307.797 432.689 308.112 432.76 308.18 432.561C316.302 407.083 325.095 381.832 334.271 356.752C343.448 331.672 353.172 306.932 363.472 282.378C366.366 275.485 369.302 268.616 372.279 261.771C375.264 254.911 378.373 248.095 381.167 241.164C381.25 240.937 380.88 240.696 380.729 240.98Z" fill="#455A64"/>
<path d="M251.574 214.365C253.259 216.212 359.774 218.74 360.322 218.044C361.774 216.141 347.995 146.041 336.888 119.242C322.685 84.8598 314.59 81.8064 309.81 79.7613C303.702 77.1482 292.581 77.7589 289.896 78.9234C286.842 80.2158 273.625 95.5963 269.653 108.023C261.695 133.004 250.095 212.746 251.574 214.365Z" fill="#455A64"/>
<path d="M318.493 85.8823H282.815C283.472 85.087 284.184 84.3343 284.732 83.6526H316.233C316.932 84.2774 317.685 85.016 318.493 85.8823ZM322.986 91.705H278.363L276.843 93.9204H324.424C323.931 93.1441 323.451 92.4056 322.986 91.705ZM327.793 99.7432H273.378C272.967 100.482 272.584 101.163 272.214 101.959H329.012L327.793 99.7432ZM331.833 107.796H269.735L269.653 108.023C269.447 108.648 269.255 109.315 269.05 110.011H332.861C332.518 109.244 332.176 108.52 331.833 107.796ZM335.449 115.834H267.475C267.297 116.544 267.105 117.254 266.927 118.049H336.381L335.449 115.834ZM338.682 123.872H265.571C265.42 124.61 265.256 125.292 265.092 126.102H339.476C339.216 125.335 338.942 124.625 338.682 123.872ZM341.421 131.924H263.9C263.736 132.663 263.585 133.401 263.448 134.14H342.119L341.421 131.924ZM343.845 139.963H262.298C262.161 140.701 262.01 141.383 261.873 142.178H344.475C344.256 141.425 344.051 140.687 343.831 139.963H343.845ZM346.078 148.015H260.805C260.668 148.753 260.545 149.435 260.408 150.23H346.694C346.461 149.492 346.269 148.768 346.064 148.015H346.078ZM348.173 156.053H259.394C259.257 156.792 259.134 157.473 259.011 158.269H348.707C348.529 157.53 348.351 156.792 348.159 156.053H348.173ZM350.159 164.091H258.038L257.668 166.321H350.666C350.488 165.582 350.31 164.83 350.145 164.091H350.159ZM352.035 172.144H256.737C256.627 172.882 256.504 173.564 256.395 174.359H352.515L352.035 172.144ZM353.816 180.182H255.573L255.244 182.397H354.35C354.186 181.659 353.967 180.92 353.802 180.182H353.816ZM355.528 188.22H254.326C254.217 188.973 254.121 189.725 254.011 190.45H355.966L355.528 188.22ZM357.144 196.272H253.231C253.121 197.039 253.025 197.778 252.943 198.488H357.541C357.418 197.764 357.267 197.054 357.13 196.272H357.144ZM358.637 204.311H252.217C252.135 205.092 252.053 205.844 251.984 206.54H359.007C358.884 205.83 358.76 205.077 358.623 204.311H358.637ZM360.007 212.363H251.464C251.362 213.03 251.395 213.712 251.56 214.365C251.757 214.483 251.977 214.556 252.204 214.578H360.212C360.144 213.925 360.048 213.187 359.938 212.363H360.007Z" fill="#263238"/>
<path d="M327.463 89.1203C373.4 124.909 413.119 174.586 409.312 190.322C405.271 206.952 373.524 225.556 345.474 229.348C339.735 230.129 321.971 186.459 327.847 184.457C332.435 182.894 353.28 176.745 355.773 173.791C357.499 171.732 325.162 124.554 314.684 99.942C303.618 74.0807 315.164 79.4773 327.463 89.1203Z" fill="#AD6359"/>
<path d="M339.695 183.079C339.695 183.079 322.163 184.897 310.754 186.658C304.386 187.638 293.62 190.322 289.265 193.262C282.746 197.65 258.175 220.344 263.352 226.636C268.036 232.317 275.117 223.313 275.117 223.313C275.117 223.313 266.488 232.416 272.816 236.591C279.143 240.767 287.306 228.07 287.306 228.07C287.306 228.07 277.5 237.074 284.663 240.852C290.881 244.132 301.756 230.584 301.756 230.584C301.756 230.584 290.457 238.878 296.51 242.883C303.194 247.314 321.958 229.135 321.958 229.135C336.955 230.868 346.2 229.803 356.774 226.735C358.705 226.224 339.695 183.079 339.695 183.079Z" fill="#AD6359"/>
<path d="M284.677 231.138C285.348 230.172 286.047 229.22 286.732 228.297C288.025 226.397 289.425 224.576 290.923 222.844C292.416 221.182 293.977 219.592 295.579 218.044C297.182 216.496 299.154 214.962 300.798 213.286C300.808 213.267 300.823 213.25 300.841 213.238C300.859 213.226 300.88 213.218 300.901 213.216C300.922 213.213 300.944 213.216 300.964 213.224C300.984 213.231 301.002 213.244 301.017 213.26C301.031 213.277 301.042 213.296 301.048 213.318C301.054 213.339 301.055 213.361 301.051 213.383C301.047 213.405 301.038 213.426 301.025 213.443C301.012 213.461 300.995 213.475 300.976 213.485C299.32 215.119 297.756 216.85 296.292 218.669C294.799 220.401 293.333 222.148 291.854 223.895C290.375 225.642 288.882 227.204 287.389 228.865C286.649 229.703 286.019 230.57 285.239 231.422C284.621 232.289 283.933 233.102 283.184 233.85C283.166 233.858 283.146 233.861 283.126 233.858C283.106 233.856 283.087 233.847 283.071 233.834C283.056 233.821 283.044 233.803 283.037 233.784C283.031 233.764 283.029 233.743 283.034 233.722C283.491 232.802 284.042 231.936 284.677 231.138Z" fill="#263238"/>
<path d="M273.375 225.244C275.67 221.637 278.2 218.196 280.949 214.948C283.742 211.72 286.839 208.789 290.194 206.199C290.317 206.114 290.468 206.285 290.372 206.398C287.633 209.636 284.743 212.817 281.908 216.013C280.538 217.575 274.443 224.861 273.69 225.542C273.512 225.713 273.265 225.457 273.375 225.244Z" fill="#263238"/>
<path d="M295.167 237.003C297.389 233.653 299.823 230.46 302.454 227.445C305.405 224.654 308.55 222.091 311.863 219.776C311.986 219.776 312.151 219.862 312.041 219.975C309.096 222.816 306.124 225.542 303.33 228.496C301.961 229.916 296.838 236.023 295.414 237.287C295.291 237.344 295.085 237.159 295.167 237.003Z" fill="#263238"/>
<path d="M378.537 133.146L343.557 156.664C343.557 156.664 317.603 114.996 310.878 95.2555C304.153 75.515 311.987 75.4724 330.354 89.7736C348.721 104.075 378.537 133.146 378.537 133.146Z" fill="#455A64"/>
<path d="M325.041 85.8823H308.606C308.532 85.141 308.532 84.3939 308.606 83.6526H321.768C322.685 84.3059 323.863 85.0586 325.041 85.8823ZM332.738 91.705H309.756C309.948 92.4151 310.167 93.1252 310.427 93.9205H335.464L332.738 91.705ZM342.326 99.7432H312.564C312.852 100.453 313.167 101.163 313.495 101.959H344.86C344.011 101.206 343.23 100.482 342.312 99.7432H342.326ZM351.434 107.796H316.166L317.234 110.011H353.872L351.434 107.796ZM360.241 115.834H320.152C320.535 116.558 320.919 117.254 321.316 118.049H362.596L360.241 115.834ZM368.828 123.872H324.425L325.644 126.102H371.156L368.828 123.872ZM377.251 131.924H328.904C329.328 132.677 329.739 133.415 330.164 134.14H377.128L378.498 133.188L377.251 131.924ZM333.533 139.963L334.82 142.178H365.144L368.431 139.963H333.533ZM338.285 148.015L339.655 150.23H353.242L356.543 148.015H338.285ZM343.175 156.053L343.572 156.706L344.545 156.053H343.175Z" fill="#263238"/>
<path d="M370.62 127.99C357.28 138.997 344.104 146.453 341.488 148.37C341.365 148.455 341.255 148.242 341.378 148.157C344.035 146.481 358.293 135.603 370.483 127.763C370.62 127.664 370.716 127.891 370.62 127.99Z" fill="#263238"/>
<path d="M345.801 155.102C345.069 155.43 344.36 155.809 343.678 156.238C339.788 149.279 335.597 142.235 331.639 135.304L325.832 125.136C323.832 121.6 321.997 117.907 319.806 114.499C319.8 114.488 319.793 114.479 319.784 114.472C319.775 114.465 319.765 114.459 319.755 114.456C319.744 114.453 319.732 114.452 319.721 114.453C319.71 114.454 319.699 114.458 319.689 114.463C319.679 114.469 319.671 114.476 319.664 114.486C319.656 114.495 319.651 114.505 319.648 114.516C319.645 114.527 319.644 114.539 319.645 114.551C319.646 114.562 319.65 114.574 319.655 114.584C321.081 117.951 322.672 121.241 324.421 124.44C324.065 123.957 323.723 123.446 323.339 123.02C322.476 121.955 321.627 120.89 320.86 119.753C320.737 119.583 320.449 119.753 320.573 119.924C321.312 121.003 321.942 122.125 322.641 123.261C323.339 124.397 324.01 125.477 324.764 126.57C325.517 127.664 326.257 128.615 327.037 129.595C327.121 129.724 327.212 129.848 327.311 129.964C328.38 131.995 329.42 134.026 330.53 136.029C334.42 143.03 343.254 157.132 343.377 157.09C344.267 156.583 345.115 155.998 345.911 155.343C345.965 155.215 345.965 155.073 345.801 155.102Z" fill="#263238"/>
<path d="M269.913 87.7001C232.632 107.781 197.625 132.208 191.05 149.179C186.941 159.859 192.023 179.216 196.173 190.847C198.2 196.528 249.766 174.459 245.479 169.758C234.878 158.141 233.153 153.483 234.317 151.125C235.043 149.62 275.844 112.894 287.294 96.3348C303.264 73.2712 286.225 78.9093 269.913 87.7001Z" fill="#AD6359"/>
<path d="M264.967 222.205C260.091 225.045 254.366 211.994 254.366 211.994C254.188 214.486 253.17 216.834 251.49 218.626C248.395 221.637 242.492 217.916 242.492 217.916C241.779 220.457 240.348 222.718 238.383 224.406C235.137 226.977 228.659 224.122 228.659 224.122C226.763 226.083 224.249 227.268 221.578 227.46C214.428 227.687 208.361 218.271 204.43 212.335C200.499 206.398 194.76 185.706 193.281 181.886L229.864 155.457C229.864 155.457 254.764 176.93 258.421 184.599C261.489 191.06 272.404 217.873 264.967 222.205Z" fill="#AD6359"/>
<path d="M254.449 211.809C252.833 204.154 249.313 196.883 245.985 189.953C245.902 189.796 245.669 189.953 245.752 190.066C249.217 196.954 250.984 204.964 254.189 211.965C254.215 211.98 254.245 211.987 254.275 211.986C254.305 211.986 254.334 211.977 254.36 211.961C254.386 211.946 254.408 211.924 254.423 211.897C254.439 211.871 254.448 211.84 254.449 211.809Z" fill="#263238"/>
<path d="M242.888 217.447C242.339 215.743 241.579 214.12 240.628 212.619C239.71 210.971 238.779 209.338 237.82 207.705C235.889 204.467 233.889 201.271 231.794 198.133C231.698 197.991 231.479 198.133 231.561 198.261C233.479 201.499 235.355 204.765 237.135 208.074C238.026 209.736 238.902 211.411 239.779 213.073C240.497 214.709 241.389 216.257 242.436 217.689C242.474 217.736 242.526 217.769 242.584 217.781C242.642 217.793 242.703 217.785 242.756 217.757C242.808 217.728 242.85 217.682 242.874 217.626C242.898 217.57 242.903 217.507 242.888 217.447Z" fill="#263238"/>
<path d="M228.574 224.037C228.063 222.495 227.303 221.055 226.328 219.776C225.411 218.356 224.52 216.851 223.589 215.388C221.795 212.448 220.014 209.509 218.33 206.512C218.309 206.49 218.282 206.475 218.253 206.47C218.223 206.465 218.193 206.47 218.167 206.485C218.14 206.499 218.119 206.522 218.107 206.55C218.094 206.578 218.091 206.61 218.097 206.64C219.795 209.693 221.452 212.775 223.178 215.814C224.027 217.234 224.876 218.796 225.739 220.288C226.397 221.72 227.297 223.019 228.396 224.122C228.506 224.122 228.602 224.037 228.574 224.037Z" fill="#263238"/>
<path d="M216.059 117.794L243.355 145.558C243.355 145.558 279.253 112.596 289.648 94.6448C300.044 76.6938 292.388 75.018 271.611 85.2432C250.833 95.4685 216.059 117.794 216.059 117.794Z" fill="#529799"/>
<path d="M216.059 117.794L243.355 145.558C243.355 145.558 279.253 112.596 289.648 94.6448C300.044 76.6938 292.388 75.018 271.611 85.2432C250.833 95.4685 216.059 117.794 216.059 117.794Z" fill="#455A64"/>
<path d="M294.196 83.6526C294.105 84.41 293.945 85.1567 293.716 85.8823H270.337L271.611 85.2432C272.761 84.6751 273.87 84.1496 274.939 83.6526H294.196ZM259.393 91.705L255.449 93.9204H290.059C290.498 93.1536 290.909 92.4009 291.278 91.705H259.393ZM245.423 99.7432L241.684 101.902H284.704C285.266 101.149 285.8 100.482 286.32 99.6864L245.423 99.7432ZM232.042 107.796L228.467 110.011H278.171C278.801 109.273 279.431 108.591 280.034 107.796H232.042ZM219.14 115.834L216.059 117.794L216.305 118.049H270.981L273.008 115.834H219.14ZM222.03 123.872L224.222 126.102H263.324L265.475 123.872H222.03ZM229.947 131.924L232.124 134.14H255.298L257.558 131.924H229.947ZM237.849 139.963L240.027 142.178H246.971L249.299 139.963H237.849Z" fill="#263238"/>
<path d="M249.023 138.301C236.423 127.195 227.109 115.649 224.945 113.434C224.85 113.32 225.028 113.164 225.124 113.277C227.151 115.578 239.792 127.607 249.229 138.131C249.338 138.258 249.147 138.415 249.023 138.301Z" fill="#263238"/>
<path d="M273.172 101.391C271.803 104.43 270.433 107.455 269.269 110.579C269.269 110.366 269.269 110.167 269.269 109.954C269.416 108.042 269.696 106.144 270.104 104.274C270.104 104.061 269.844 103.961 269.789 104.174C269.378 106.063 269.009 107.98 268.721 109.855C268.57 110.778 268.488 111.701 268.42 112.624C268.426 112.738 268.426 112.852 268.42 112.965C268.412 113.002 268.412 113.041 268.42 113.079C267.05 117.24 266.256 121.5 265.119 125.704C265.113 125.725 265.112 125.746 265.115 125.767C265.117 125.788 265.124 125.808 265.134 125.827C265.144 125.845 265.158 125.862 265.174 125.875C265.19 125.888 265.209 125.897 265.228 125.903C265.248 125.908 265.269 125.91 265.289 125.907C265.309 125.905 265.329 125.898 265.347 125.887C265.365 125.877 265.38 125.863 265.393 125.846C265.405 125.829 265.415 125.81 265.42 125.789C266.543 121.671 268.159 117.68 269.529 113.661C270.899 109.642 272.076 105.538 273.419 101.49C273.46 101.362 273.227 101.249 273.172 101.391Z" fill="#263238"/>
<path d="M292.374 98.0816C298.373 99.7858 309.097 90.6115 313.466 82.9994C313.767 82.4739 313.178 76.8358 312.781 69.948C312.548 65.6874 312.384 61.1003 312.535 56.8397C312.535 55.9592 286.512 62.35 286.512 62.35C287.795 67.7399 288.439 73.2722 288.429 78.8241C288.392 79.4076 288.31 79.987 288.183 80.5567C288.174 80.6559 288.174 80.7557 288.183 80.8549C287.498 84.1497 286.58 96.42 292.374 98.0816Z" fill="#AD6359"/>
<path d="M310.944 56.8824C309.492 63.9832 304.548 81.3094 290.769 81.0253C289.887 81.0302 289.007 80.9493 288.14 80.7839C288.13 80.6847 288.13 80.5848 288.14 80.4856C288.267 79.916 288.349 79.3365 288.386 78.753C288.395 73.1966 287.751 67.6597 286.469 62.2648C286.469 62.2648 305.315 57.7345 310.944 56.8824Z" fill="#263238"/>
<path d="M284.937 41.8995C285.06 48.4465 280.663 53.8574 275.116 53.9568C269.57 54.0562 264.981 48.8583 264.858 42.2971C264.735 35.7359 269.131 30.3393 274.678 30.2257C280.225 30.112 284.813 35.3383 284.937 41.8995Z" fill="#529799"/>
<path d="M277.265 55.6944C283.436 55.5716 288.329 49.5598 288.194 42.2668C288.059 34.9738 282.947 29.1612 276.776 29.2841C270.604 29.4069 265.711 35.4187 265.846 42.7117C265.981 50.0048 271.093 55.8173 277.265 55.6944Z" fill="#C7C7C7"/>
<path d="M311.206 21.4206C315.465 30.3108 315.054 58.1747 309.603 65.3181C301.7 75.6712 286.594 79.1364 277.554 68.7834C268.802 58.7285 269.966 22.4289 276.267 15.7114C285.525 5.81283 304.878 8.29814 311.206 21.4206Z" fill="#AD6359"/>
<path d="M290.033 45.6346C290.033 45.6346 290.17 45.7198 290.17 45.805C290.088 47.6796 290.307 49.8383 291.937 50.4774V50.591C289.937 50.2785 289.677 47.3956 290.033 45.6346Z" fill="#263238"/>
<path d="M291.673 43.6747C294.576 43.4759 294.741 49.54 292.042 49.7246C289.344 49.9093 289.221 43.8593 291.673 43.6747Z" fill="#263238"/>
<path d="M279.91 45.9896C279.91 45.9896 279.759 46.089 279.773 46.16C279.882 48.0347 279.69 50.1933 278.074 50.875C278.074 50.875 278.074 50.9886 278.074 50.9744C280.088 50.6194 280.293 47.7506 279.91 45.9896Z" fill="#263238"/>
<path d="M278.24 44.0723C275.323 43.9303 275.254 49.9945 277.952 50.1223C280.651 50.2501 280.678 44.2001 278.24 44.0723Z" fill="#263238"/>
<path d="M294.239 38.8177C293.439 38.7587 292.643 38.6496 291.856 38.4911C291 38.4921 290.168 38.2028 289.486 37.6674C289.304 37.4587 289.195 37.1932 289.175 36.9129C289.155 36.6325 289.226 36.3533 289.377 36.1194C289.741 35.6979 290.207 35.3849 290.727 35.2126C291.247 35.0403 291.802 35.0151 292.335 35.1395C293.454 35.2114 294.506 35.7186 295.28 36.5596C295.426 36.7668 295.515 37.0112 295.539 37.2668C295.562 37.5225 295.517 37.7799 295.411 38.0115C295.304 38.2432 295.138 38.4405 294.932 38.5825C294.726 38.7245 294.486 38.8058 294.239 38.8177Z" fill="#263238"/>
<path d="M275.432 39.7408C276.24 39.5704 276.953 39.2864 277.733 39.045C278.577 38.9141 279.357 38.5001 279.952 37.8662C280.104 37.6301 280.175 37.3485 280.155 37.0657C280.135 36.7829 280.025 36.5149 279.842 36.304C279.421 35.943 278.914 35.7062 278.374 35.6188C277.834 35.5313 277.282 35.5963 276.775 35.807C275.668 36.0463 274.689 36.7109 274.035 37.6674C273.917 37.8984 273.862 38.1589 273.878 38.42C273.893 38.6812 273.977 38.9329 274.122 39.1474C274.266 39.3619 274.465 39.5308 274.696 39.6355C274.928 39.7403 275.182 39.7767 275.432 39.7408Z" fill="#263238"/>
<path d="M293.538 62.989C293.114 63.4293 292.689 64.0542 292.045 64.1252C291.372 64.1313 290.705 63.991 290.087 63.7133C290.087 63.7133 289.963 63.7133 290.004 63.8127C290.274 64.1736 290.633 64.4523 291.043 64.6198C291.452 64.7872 291.898 64.8371 292.333 64.7643C292.698 64.6518 293.022 64.43 293.266 64.1268C293.51 63.8236 293.662 63.4525 293.702 63.0601C293.73 62.9464 293.593 62.918 293.538 62.989Z" fill="#263238"/>
<path d="M291.47 57.422C291.032 58.178 290.449 58.8319 289.756 59.3427C289.063 59.8535 288.276 60.2102 287.443 60.3902C286.715 60.5537 285.968 60.611 285.224 60.5606C285.083 60.5753 284.941 60.5753 284.8 60.5606H284.403C284.305 60.545 284.216 60.4959 284.149 60.4211C284.082 60.3464 284.041 60.2505 284.033 60.1487C284.026 60.0826 284.026 60.016 284.033 59.9499V59.7795C283.964 58.3593 284.033 56.1438 284.033 56.1438C283.54 56.4137 280.979 57.706 280.992 56.9533C281.184 50.6904 281.389 43.7315 282.855 37.5396C282.855 37.4944 282.872 37.451 282.903 37.419C282.934 37.3871 282.976 37.3691 283.019 37.3691C283.063 37.3691 283.105 37.3871 283.135 37.419C283.166 37.451 283.184 37.4944 283.184 37.5396C283.184 43.5611 282.266 49.5542 282.211 55.6042C283.123 55.1292 284.096 54.7943 285.101 54.61C285.293 54.61 284.882 58.8706 284.964 59.4954C286.11 59.5825 287.261 59.4287 288.349 59.0431C289.436 58.6575 290.437 58.0481 291.292 57.2516C291.429 57.1522 291.579 57.2658 291.47 57.422Z" fill="#263238"/>
<path d="M286.031 59.7937C286.822 60.8042 287.85 61.5867 289.017 62.066C289.668 62.2804 290.366 62.2804 291.017 62.066C292.455 61.6257 292.455 60.2482 292.153 59.0836C291.987 58.4616 291.752 57.8613 291.455 57.2942C289.953 58.7105 288.051 59.5871 286.031 59.7937Z" fill="#263238"/>
<path d="M289.02 62.137C289.67 62.3514 290.369 62.3514 291.019 62.137C292.457 61.6968 292.457 60.3192 292.156 59.1547C291.385 59.2095 290.654 59.5344 290.084 60.0763C289.514 60.6182 289.139 61.3449 289.02 62.137Z" fill="#FF98B9"/>
<path opacity="0.2" d="M314.067 41.1894C312.314 40.8486 308.26 34.5572 306.52 32.0577C304.781 29.5582 304.096 16.3506 304 13.3682C307.087 15.2928 309.585 18.0847 311.204 21.4206C313.094 25.3971 314.067 33.1654 314.067 41.1894Z" fill="#263238"/>
<path d="M281.883 23.6361C282.898 24.8524 284.195 25.7803 285.652 26.3319C287.109 26.8836 288.678 27.0409 290.21 26.7888C291.778 26.5283 293.255 25.8548 294.499 24.8328C295.744 23.8108 296.715 22.4745 297.318 20.9519C297.318 20.8667 297.483 20.9519 297.455 20.9519C296.951 22.6036 296.021 24.081 294.765 25.2247C293.51 26.3685 291.978 27.1352 290.333 27.4421C288.704 27.6561 287.05 27.4223 285.535 26.7643C284.021 26.1063 282.7 25.0471 281.705 23.6929C281.595 23.6645 281.787 23.5224 281.883 23.6361Z" fill="#263238"/>
<path d="M291.182 0.288399C296.455 0.387811 301.304 3.38438 303.262 7.09104C304.343 9.20151 304.705 11.6285 304.289 13.9789C304.289 14.0783 304.084 14.0641 304.098 13.9789C304.193 11.8981 303.747 9.8291 302.808 7.98792C301.868 6.14674 300.469 4.601 298.756 3.5122C296.883 2.24865 294.753 1.45366 292.533 1.18995C290.313 0.926242 288.064 1.20102 285.964 1.99262C283.919 2.72851 282.188 4.18628 281.074 6.11112C280.978 6.30995 280.581 6.11111 280.663 5.9691C282.06 2.48967 286.388 0.21739 291.182 0.288399Z" fill="#263238"/>
<path d="M260.61 12.3315C261.452 9.62282 263.195 7.31248 265.527 5.81287C268.746 3.72521 272.376 4.00925 276.032 4.39269C276.142 4.39269 276.128 4.56312 276.032 4.54891C272.937 4.25068 269.787 4.13707 266.952 5.67085C264.603 6.90988 262.743 8.95869 261.692 11.4652C260.684 14.0382 260.604 16.9019 261.467 19.5312C262.33 22.1605 264.078 24.3792 266.39 25.7805C267.741 26.554 269.23 27.0324 270.766 27.1863C272.302 27.3401 273.852 27.1662 275.32 26.6752C275.43 26.6752 275.512 26.8031 275.402 26.8599C273.417 27.6156 271.268 27.782 269.196 27.3404C267.124 26.8987 265.212 25.8666 263.676 24.36C262.139 22.8535 261.038 20.9322 260.496 18.8122C259.955 16.6923 259.994 14.4578 260.61 12.3599V12.3315Z" fill="#263238"/>
<path d="M312.985 26.8456C312.985 26.8456 317.888 17.018 313.656 11.3941C311.245 8.21294 303.383 8.72421 303.383 8.72421C301.25 5.50137 297.968 3.28941 294.262 2.57485C287.66 1.15468 279.867 5.15957 279.867 5.15957C279.867 5.15957 273.58 1.50973 267.76 5.04596C259.638 9.97397 260.788 22.8691 269.047 26.9308C274.854 29.7712 282.647 24.3887 282.647 24.3887C283.401 24.4881 291.166 29.2315 296.932 22.0312C296.932 22.0312 301.712 26.2918 305.945 23.2384C306.62 24.5157 307.657 25.5469 308.916 26.1922C310.176 26.8375 311.596 27.0656 312.985 26.8456Z" fill="#263238"/>
<path d="M309.179 44.4274C309.179 44.4274 313.849 34.756 317.999 36.3608C322.149 37.9656 319.492 51.3579 315.26 53.7864C314.734 54.1373 314.145 54.3742 313.529 54.4828C312.912 54.5913 312.281 54.5693 311.673 54.418C311.065 54.2667 310.493 53.9893 309.991 53.6025C309.49 53.2157 309.069 52.7275 308.754 52.1674L309.179 44.4274Z" fill="#AD6359"/>
<path d="M317.203 40.1811C317.272 40.1811 317.299 40.2663 317.203 40.3089C314.231 42.1125 312.999 45.4073 312.273 48.7305C312.411 48.3751 312.621 48.0547 312.889 47.7915C313.158 47.5283 313.478 47.3285 313.828 47.2057C314.178 47.083 314.55 47.0402 314.917 47.0803C315.285 47.1204 315.639 47.2425 315.957 47.4382C316.053 47.4382 315.957 47.637 315.957 47.6228C315.383 47.5172 314.792 47.5967 314.263 47.8507C313.734 48.1047 313.292 48.5208 312.999 49.0429C312.525 49.944 312.148 50.8965 311.876 51.8833C311.766 52.2099 311.232 52.1247 311.3 51.7697C310.574 47.5802 312.875 41.2604 317.203 40.1811Z" fill="#263238"/>
<path d="M318.134 36.1052C318.134 36.1052 319.408 21.8182 315.573 13.8226C311.286 4.91813 292.851 -3.94377 279.867 5.15955C279.867 5.15955 300.74 1.86474 310.095 14.3055C314.039 19.5459 313.519 36.3608 313.519 36.3608L318.134 36.1052Z" fill="#C7C7C7"/>
<path d="M327.382 43.8213C327.634 36.5317 322.839 30.4358 316.671 30.2057C310.502 29.9756 305.297 35.6986 305.044 42.9882C304.791 50.2779 309.586 56.3738 315.755 56.6039C321.923 56.8339 327.129 51.111 327.382 43.8213Z" fill="#C7C7C7"/>
<path d="M308.302 42.6947C308.069 49.2417 312.411 54.7236 317.889 54.9224C323.368 55.1213 328.12 49.9944 328.34 43.4474C328.559 36.9004 324.231 31.4186 318.752 31.2055C313.274 30.9925 308.521 36.1477 308.302 42.6947Z" fill="#529799"/>
<path d="M316.586 84.9734C313.771 88.6056 310.763 92.0715 307.574 95.3549C304.492 98.3372 300.726 101.036 296.617 101.462C292.508 101.888 288.399 101.064 286.879 95.8946C285.646 91.7902 285.811 87.5581 286.468 82.2751C286.468 82.2336 286.452 82.1939 286.424 82.1646C286.396 82.1353 286.358 82.1189 286.318 82.1189C286.278 82.1189 286.239 82.1353 286.211 82.1646C286.183 82.1939 286.167 82.2336 286.167 82.2751C285.29 89.0635 284.414 99.587 290.372 101.873C297.055 104.444 303.547 100.823 308.177 96.0224C311.406 92.7234 314.281 89.0711 316.751 85.1296C316.751 85.0018 316.641 84.8598 316.586 84.9734Z" fill="#263238"/>
<path d="M350.91 240.454H229.109V246.121H350.91V240.454Z" fill="#C7C7C7"/>
<path d="M324.832 240.454L329.01 246.121H229.109V240.454H324.832Z" fill="#A6A6A6"/>
<path d="M319.627 246.121H200.922L191.047 162.529H309.752L319.627 246.121Z" fill="#C7C7C7"/>
<path d="M262.569 204.325C262.587 205.303 262.417 206.276 262.067 207.185C261.718 208.094 261.197 208.922 260.534 209.619C259.872 210.316 259.082 210.869 258.211 211.245C257.34 211.621 256.404 211.813 255.461 211.809C253.537 211.802 251.692 211.015 250.32 209.617C248.949 208.218 248.159 206.319 248.119 204.325C248.096 203.345 248.262 202.371 248.608 201.459C248.954 200.548 249.474 199.717 250.136 199.018C250.797 198.319 251.588 197.764 252.46 197.388C253.333 197.011 254.269 196.82 255.214 196.826C257.14 196.837 258.987 197.626 260.36 199.027C261.734 200.427 262.526 202.328 262.569 204.325Z" fill="white"/>
<path d="M592.816 257.169H465.824V274.041H592.816V257.169Z" fill="#455A64"/>
<path d="M589.227 274.041H469.398V279.31H589.227V274.041Z" fill="#37474F"/>
<path d="M572.121 402.325H486.52V407.594H572.121V402.325Z" fill="#455A64"/>
<path d="M483.74 479.782H477.398V279.31H494.697L483.74 479.782Z" fill="#455A64"/>
<path d="M494.697 279.31L494.053 291.168H477.398V279.31H494.697Z" fill="#263238"/>
<path d="M574.887 479.782H581.242V279.31H563.93L574.887 479.782Z" fill="#455A64"/>
<path d="M563.93 279.31L564.587 291.168H581.228V279.31H563.93Z" fill="#263238"/>
<path d="M567.272 215.104H469.398V232.402H567.272V215.104Z" fill="#455A64"/>
<path d="M559.63 215.104H550.508V232.402H559.63V215.104Z" fill="#EBEBEB"/>
<path d="M486.165 215.104H477.043V232.402H486.165V215.104Z" fill="#EBEBEB"/>
<path d="M581.777 232.402H474.371V257.184H581.777V232.402Z" fill="#263238"/>
<path d="M532.019 254.599H581.75V234.958H532.019V254.599Z" fill="white"/>
<path d="M581.762 239.005C575.079 238.863 556.89 238.622 556.89 238.622L552.069 238.707C545.385 238.764 538.706 238.863 532.031 239.005C538.715 239.147 545.394 239.242 552.069 239.289L556.89 239.375C556.89 239.375 575.079 239.133 581.762 239.005Z" fill="#DBDBDB"/>
<path d="M581.762 242.854C575.079 242.712 556.89 242.471 556.89 242.471L552.069 242.556C545.385 242.613 538.706 242.712 532.031 242.854C538.715 242.996 545.394 243.091 552.069 243.138L556.89 243.238C556.89 243.238 575.079 242.996 581.762 242.854Z" fill="#DBDBDB"/>
<path d="M581.762 246.76C575.079 246.618 556.89 246.39 556.89 246.39L552.069 246.476C545.385 246.476 538.706 246.57 532.031 246.76C538.715 246.902 545.394 247.001 552.069 247.058L556.89 247.143C556.89 247.143 575.079 246.845 581.762 246.76Z" fill="#DBDBDB"/>
<path d="M581.762 250.566C575.079 250.424 556.89 250.182 556.89 250.182L552.069 250.267C545.385 250.324 538.706 250.424 532.031 250.566C538.715 250.689 545.394 250.783 552.069 250.85L556.89 250.935C556.89 250.935 575.079 250.693 581.762 250.566Z" fill="#DBDBDB"/>
<path d="M482.399 248.18V242.314C482.397 242.242 482.409 242.171 482.434 242.104C482.46 242.036 482.498 241.975 482.546 241.924C482.595 241.872 482.653 241.831 482.717 241.803C482.781 241.775 482.85 241.761 482.919 241.761H486.056C486.197 241.761 486.333 241.819 486.433 241.923C486.533 242.027 486.59 242.168 486.59 242.314C486.59 242.461 486.533 242.602 486.433 242.706C486.333 242.81 486.197 242.868 486.056 242.868H483.467V244.686H485.672C485.81 244.693 485.941 244.754 486.037 244.857C486.134 244.96 486.189 245.097 486.193 245.24C486.194 245.312 486.182 245.384 486.157 245.451C486.132 245.518 486.094 245.579 486.045 245.631C485.996 245.682 485.938 245.723 485.874 245.751C485.81 245.779 485.742 245.794 485.672 245.794H483.44V247.626H486.028C486.17 247.626 486.306 247.684 486.406 247.788C486.506 247.892 486.562 248.033 486.562 248.18C486.562 248.327 486.506 248.468 486.406 248.571C486.306 248.675 486.17 248.734 486.028 248.734H482.933C482.791 248.734 482.655 248.675 482.555 248.571C482.455 248.468 482.399 248.327 482.399 248.18Z" fill="#529799"/>
<path d="M489.135 248.18C489.132 248.323 489.076 248.46 488.98 248.563C488.883 248.665 488.753 248.727 488.615 248.734C488.475 248.73 488.343 248.67 488.246 248.567C488.149 248.463 488.094 248.324 488.094 248.18V242.4C488.091 242.31 488.107 242.221 488.143 242.14C488.179 242.058 488.232 241.987 488.3 241.931C488.355 241.89 488.419 241.861 488.485 241.845C488.552 241.829 488.621 241.827 488.688 241.839C488.756 241.851 488.82 241.876 488.878 241.914C488.936 241.952 488.986 242.001 489.026 242.059L492.135 246.504V242.4C492.135 242.259 492.188 242.124 492.282 242.023C492.377 241.922 492.506 241.864 492.641 241.86C492.78 241.863 492.912 241.921 493.011 242.021C493.11 242.121 493.169 242.256 493.176 242.4V248.18C493.172 248.326 493.115 248.464 493.015 248.567C492.916 248.671 492.782 248.73 492.641 248.734C492.568 248.731 492.495 248.711 492.429 248.677C492.363 248.643 492.305 248.594 492.258 248.535L489.19 244.118L489.135 248.18Z" fill="#529799"/>
<path d="M494.695 245.126C494.699 244.65 494.793 244.178 494.973 243.739C495.153 243.3 495.414 242.903 495.742 242.569C496.071 242.235 496.459 241.972 496.886 241.794C497.313 241.616 497.769 241.528 498.229 241.533C499.023 241.533 499.794 241.808 500.42 242.314C500.483 242.358 500.536 242.414 500.576 242.48C500.617 242.545 500.643 242.619 500.655 242.696C500.667 242.773 500.664 242.851 500.645 242.927C500.626 243.002 500.593 243.073 500.547 243.134C500.501 243.196 500.443 243.247 500.377 243.284C500.311 243.322 500.238 243.344 500.164 243.351C500.089 243.358 500.014 243.349 499.942 243.325C499.871 243.3 499.805 243.261 499.749 243.209C499.313 242.862 498.779 242.673 498.229 242.669C497.909 242.666 497.592 242.728 497.296 242.852C497 242.976 496.73 243.16 496.503 243.394C496.278 243.618 496.099 243.887 495.976 244.185C495.854 244.482 495.791 244.803 495.791 245.126C495.79 245.448 495.853 245.766 495.976 246.062C496.098 246.357 496.278 246.624 496.503 246.845C496.73 247.078 497 247.262 497.296 247.387C497.592 247.511 497.909 247.573 498.229 247.569C498.71 247.568 499.182 247.436 499.599 247.186V245.765H498.229C498.085 245.762 497.947 245.701 497.845 245.595C497.743 245.489 497.685 245.347 497.681 245.197C497.685 245.049 497.744 244.908 497.846 244.805C497.949 244.701 498.086 244.643 498.229 244.643H500.146C500.218 244.642 500.289 244.655 500.355 244.682C500.421 244.709 500.482 244.749 500.533 244.801C500.584 244.852 500.625 244.914 500.652 244.982C500.68 245.05 500.694 245.123 500.694 245.197V247.399C500.702 247.455 500.702 247.513 500.694 247.569C500.66 247.671 500.592 247.756 500.503 247.811C499.881 248.315 499.114 248.59 498.325 248.592C497.401 248.63 496.499 248.287 495.819 247.637C495.139 246.988 494.734 246.085 494.695 245.126Z" fill="#529799"/>
<path d="M502.312 248.18V242.314C502.313 242.168 502.369 242.027 502.469 241.923C502.569 241.819 502.705 241.761 502.847 241.761C502.988 241.761 503.124 241.819 503.224 241.923C503.325 242.027 503.381 242.168 503.381 242.314V247.626H505.983C506.125 247.626 506.261 247.684 506.361 247.788C506.461 247.892 506.517 248.033 506.517 248.18C506.517 248.327 506.461 248.468 506.361 248.571C506.261 248.675 506.125 248.734 505.983 248.734H502.847C502.705 248.734 502.569 248.675 502.469 248.571C502.369 248.468 502.312 248.327 502.312 248.18Z" fill="#529799"/>
<path d="M507.828 242.286C507.826 242.213 507.839 242.14 507.865 242.072C507.891 242.004 507.931 241.942 507.981 241.89C508.031 241.838 508.09 241.797 508.156 241.77C508.221 241.743 508.292 241.73 508.362 241.732C508.503 241.736 508.637 241.795 508.736 241.898C508.836 242.001 508.893 242.14 508.897 242.286V248.18C508.893 248.326 508.836 248.464 508.736 248.567C508.637 248.671 508.503 248.73 508.362 248.734C508.292 248.736 508.221 248.723 508.156 248.695C508.09 248.668 508.031 248.628 507.981 248.576C507.931 248.524 507.891 248.462 507.865 248.394C507.839 248.326 507.826 248.253 507.828 248.18V242.286Z" fill="#529799"/>
<path d="M510.472 246.973C510.513 246.92 510.564 246.876 510.622 246.844C510.679 246.812 510.742 246.792 510.807 246.786C510.872 246.779 510.938 246.786 511 246.806C511.063 246.826 511.121 246.858 511.171 246.902C511.686 247.357 512.33 247.626 513.006 247.669C513.434 247.674 513.854 247.545 514.211 247.299C514.331 247.225 514.431 247.121 514.502 246.997C514.574 246.874 514.615 246.733 514.622 246.589C514.628 246.472 514.595 246.356 514.526 246.263C514.457 246.139 514.358 246.037 514.239 245.964C513.814 245.722 513.35 245.563 512.869 245.496C512.443 245.428 512.028 245.299 511.636 245.112C511.271 244.949 510.961 244.677 510.746 244.331C510.596 244.09 510.52 243.808 510.527 243.522C510.537 243.24 510.61 242.965 510.741 242.719C510.872 242.472 511.057 242.261 511.28 242.101C511.769 241.744 512.353 241.555 512.951 241.562C513.71 241.598 514.438 241.881 515.033 242.371C515.087 242.407 515.133 242.454 515.169 242.508C515.205 242.563 515.23 242.625 515.243 242.689C515.255 242.754 515.256 242.821 515.243 242.886C515.231 242.951 515.206 243.012 515.17 243.067C515.135 243.124 515.09 243.174 515.036 243.213C514.983 243.251 514.923 243.279 514.859 243.293C514.795 243.308 514.73 243.309 514.665 243.297C514.601 243.285 514.54 243.26 514.485 243.223C514.09 242.842 513.594 242.59 513.061 242.499C512.675 242.493 512.296 242.612 511.979 242.84C511.874 242.906 511.787 242.997 511.725 243.106C511.663 243.215 511.628 243.338 511.623 243.465C511.615 243.56 511.639 243.656 511.691 243.735C511.754 243.842 511.838 243.934 511.938 244.004C512.313 244.219 512.721 244.368 513.143 244.445C513.614 244.523 514.074 244.662 514.513 244.857C514.902 245.029 515.235 245.315 515.471 245.68C515.626 245.935 515.707 246.231 515.704 246.532C515.695 246.837 515.615 247.136 515.472 247.402C515.33 247.669 515.127 247.897 514.882 248.066C514.36 248.443 513.738 248.642 513.102 248.634C512.202 248.591 511.34 248.241 510.65 247.64C510.548 247.57 510.473 247.464 510.44 247.341C510.407 247.218 510.419 247.087 510.472 246.973Z" fill="#529799"/>
<path d="M517.09 248.18V242.314C517.088 242.242 517.1 242.171 517.126 242.104C517.151 242.036 517.189 241.975 517.238 241.924C517.286 241.872 517.344 241.831 517.408 241.803C517.472 241.775 517.541 241.761 517.61 241.761C517.681 241.759 517.751 241.772 517.817 241.799C517.883 241.826 517.942 241.867 517.992 241.918C518.042 241.97 518.082 242.032 518.108 242.1C518.134 242.168 518.147 242.241 518.145 242.314V244.7H520.637V242.314C520.636 242.242 520.648 242.171 520.673 242.104C520.698 242.036 520.736 241.975 520.785 241.924C520.833 241.872 520.891 241.831 520.955 241.803C521.019 241.775 521.088 241.761 521.158 241.761C521.228 241.759 521.299 241.772 521.364 241.799C521.43 241.826 521.49 241.867 521.54 241.918C521.59 241.97 521.629 242.032 521.655 242.1C521.681 242.168 521.694 242.241 521.692 242.314V248.18C521.694 248.253 521.681 248.326 521.655 248.394C521.629 248.462 521.59 248.524 521.54 248.576C521.49 248.628 521.43 248.668 521.364 248.695C521.299 248.723 521.228 248.736 521.158 248.734C521.088 248.734 521.019 248.719 520.955 248.691C520.891 248.663 520.833 248.622 520.785 248.571C520.736 248.519 520.698 248.458 520.673 248.391C520.648 248.324 520.636 248.252 520.637 248.18V245.766H518.145V248.18C518.147 248.253 518.134 248.326 518.108 248.394C518.082 248.462 518.042 248.524 517.992 248.576C517.942 248.628 517.883 248.668 517.817 248.695C517.751 248.723 517.681 248.736 517.61 248.734C517.541 248.734 517.472 248.719 517.408 248.691C517.344 248.663 517.286 248.622 517.238 248.571C517.189 248.519 517.151 248.458 517.126 248.391C517.1 248.324 517.088 248.252 517.09 248.18Z" fill="#529799"/>
<path d="M580.421 201.896H484.137V215.104H580.421V201.896Z" fill="#529799"/>
<path d="M548.726 203.274H484.121V213.741H548.726V203.274Z" fill="white"/>
<path d="M488.312 211.582C493.344 211.638 498.366 211.676 503.378 211.695H518.444H533.51C538.55 211.695 543.572 211.657 548.576 211.582C543.549 211.582 538.509 211.497 533.51 211.468H518.444H503.378C498.379 211.497 493.339 211.525 488.312 211.582Z" fill="#DBDBDB"/>
<path d="M488.312 209.537C493.339 209.537 498.379 209.622 503.378 209.636H518.444H533.51C538.55 209.636 543.591 209.636 548.576 209.537C543.545 209.48 538.523 209.442 533.51 209.423H518.444H503.378C498.366 209.442 493.344 209.48 488.312 209.537Z" fill="#DBDBDB"/>
<path d="M488.312 207.477C493.339 207.477 498.379 207.562 503.378 207.591H518.444H533.51C538.55 207.591 543.591 207.591 548.576 207.477C543.545 207.421 538.523 207.383 533.51 207.364H518.444H503.378C498.366 207.383 493.344 207.421 488.312 207.477Z" fill="#DBDBDB"/>
<path d="M488.312 205.418C493.344 205.475 498.366 205.513 503.378 205.532H518.444H533.51C538.55 205.532 543.572 205.494 548.576 205.418C543.549 205.418 538.509 205.333 533.51 205.305H518.444H503.378C498.379 205.333 493.339 205.361 488.312 205.418Z" fill="#DBDBDB"/>
<path d="M552.672 211.554V205.688C552.672 205.39 552.836 205.134 553.042 205.134H555.206C555.397 205.134 555.575 205.39 555.575 205.688C555.575 205.986 555.397 206.242 555.206 206.242H553.411V208.06H554.959C555.151 208.06 555.315 208.315 555.315 208.614C555.315 208.912 555.151 209.168 554.959 209.168H553.411V211.554C553.411 211.852 553.247 212.107 553.042 212.107C552.836 212.107 552.672 211.852 552.672 211.554Z" fill="#37474F"/>
<path d="M559.754 211.255C559.791 211.382 559.788 211.517 559.747 211.643C559.705 211.768 559.626 211.876 559.521 211.951C559.471 211.963 559.42 211.963 559.37 211.951C559.273 211.946 559.181 211.906 559.11 211.837C559.015 211.735 558.941 211.614 558.891 211.482C558.788 211.094 558.742 210.692 558.754 210.29C558.757 210.144 558.734 210 558.685 209.863C558.641 209.752 558.571 209.655 558.48 209.579C558.375 209.472 558.249 209.39 558.11 209.338H557.329V211.497C557.329 211.795 557.165 212.051 556.96 212.051C556.754 212.051 556.59 211.795 556.59 211.497V205.631C556.59 205.319 556.754 205.077 556.96 205.077H558.138C558.932 205.077 559.507 206.029 559.507 207.222C559.519 207.812 559.335 208.388 558.987 208.855C559.081 208.966 559.16 209.09 559.22 209.224C559.37 209.557 559.445 209.922 559.439 210.29C559.427 210.488 559.427 210.687 559.439 210.886C559.52 210.91 559.593 210.957 559.649 211.022C559.705 211.088 559.741 211.169 559.754 211.255ZM558.822 207.265C558.822 206.682 558.521 206.228 558.138 206.228H557.329V208.273H558.138C558.521 208.287 558.822 207.833 558.822 207.279V207.265Z" fill="#37474F"/>
<path d="M560.82 211.554V205.688C560.82 205.376 560.985 205.134 561.19 205.134H563.354C563.546 205.134 563.724 205.376 563.724 205.688C563.724 206.001 563.546 206.242 563.354 206.242H561.56V208.06H563.108C563.299 208.06 563.464 208.315 563.464 208.614C563.464 208.912 563.299 209.168 563.108 209.168H561.56V211H563.354C563.546 211 563.724 211.241 563.724 211.554C563.724 211.866 563.546 212.107 563.354 212.107H561.19C560.998 212.107 560.82 211.852 560.82 211.554Z" fill="#37474F"/>
<path d="M565.476 211.553C565.476 211.852 565.312 212.107 565.12 212.107C564.928 212.107 564.764 211.852 564.764 211.553V205.773C564.75 205.609 564.799 205.446 564.901 205.319C564.938 205.279 564.983 205.25 565.034 205.235C565.085 205.22 565.139 205.218 565.19 205.231C565.241 205.244 565.288 205.271 565.327 205.309C565.365 205.347 565.393 205.394 565.408 205.447L567.544 209.892V205.788C567.544 205.504 567.709 205.248 567.914 205.248C568.12 205.248 568.27 205.504 568.27 205.788V211.568C568.27 211.866 568.106 212.122 567.914 212.122C567.856 212.115 567.8 212.094 567.752 212.059C567.704 212.024 567.666 211.977 567.64 211.923V211.852L565.517 207.435L565.476 211.553Z" fill="#37474F"/>
<path d="M569.656 208.514C569.656 206.554 570.766 204.95 572.094 204.935C572.388 204.947 572.677 205.022 572.941 205.157C573.206 205.291 573.44 205.482 573.628 205.717C573.695 205.837 573.731 205.975 573.731 206.114C573.731 206.254 573.695 206.391 573.628 206.512C573.61 206.563 573.579 206.609 573.538 206.645C573.498 206.681 573.45 206.706 573.398 206.717C573.346 206.728 573.292 206.726 573.242 206.71C573.191 206.694 573.145 206.665 573.108 206.625C572.982 206.456 572.82 206.317 572.635 206.221C572.45 206.126 572.246 206.074 572.039 206.072C571.8 206.087 571.567 206.161 571.361 206.287C571.154 206.413 570.978 206.587 570.848 206.796C570.526 207.31 570.355 207.909 570.355 208.521C570.355 209.134 570.526 209.733 570.848 210.247C570.978 210.456 571.154 210.63 571.361 210.756C571.567 210.882 571.8 210.956 572.039 210.971C572.246 210.969 572.45 210.917 572.635 210.821C572.82 210.725 572.982 210.587 573.108 210.417C573.145 210.378 573.191 210.349 573.242 210.333C573.292 210.317 573.346 210.315 573.398 210.326C573.45 210.337 573.498 210.362 573.538 210.398C573.579 210.434 573.61 210.479 573.628 210.531C573.695 210.652 573.731 210.789 573.731 210.929C573.731 211.068 573.695 211.205 573.628 211.326C573.44 211.561 573.206 211.752 572.941 211.886C572.677 212.021 572.388 212.096 572.094 212.107C570.766 212.107 569.67 210.503 569.656 208.514Z" fill="#37474F"/>
<path d="M574.969 211.554V205.688C574.969 205.376 575.133 205.134 575.339 205.134C575.544 205.134 575.708 205.376 575.708 205.688V208.074H577.434V205.688C577.434 205.376 577.598 205.134 577.804 205.134C578.009 205.134 578.174 205.376 578.174 205.688V211.554C578.174 211.866 578.009 212.107 577.804 212.107C577.598 212.107 577.434 211.866 577.434 211.554V209.168H575.722V211.554C575.722 211.866 575.558 212.107 575.352 212.107C575.147 212.107 574.969 211.866 574.969 211.554Z" fill="#37474F"/>
<path d="M489.891 226.593V220.714C489.891 220.642 489.905 220.57 489.932 220.504C489.959 220.437 489.998 220.377 490.048 220.327C490.098 220.277 490.157 220.237 490.221 220.211C490.286 220.185 490.355 220.172 490.425 220.174H491.548C492.438 220.174 493.291 220.541 493.921 221.193C494.55 221.846 494.903 222.731 494.903 223.653C494.903 224.576 494.55 225.461 493.921 226.114C493.291 226.766 492.438 227.133 491.548 227.133H490.425C490.355 227.135 490.286 227.122 490.221 227.096C490.157 227.07 490.098 227.03 490.048 226.98C489.998 226.93 489.959 226.869 489.932 226.803C489.905 226.737 489.891 226.665 489.891 226.593ZM490.959 226.025H491.548C492.155 226.025 492.736 225.775 493.165 225.33C493.594 224.886 493.835 224.282 493.835 223.653C493.835 223.024 493.594 222.421 493.165 221.976C492.736 221.532 492.155 221.282 491.548 221.282H490.959V226.025Z" fill="#EBEBEB"/>
<path d="M496.367 220.714C496.367 220.642 496.381 220.57 496.408 220.504C496.435 220.437 496.475 220.377 496.524 220.327C496.574 220.277 496.633 220.237 496.698 220.211C496.763 220.185 496.832 220.172 496.901 220.174C497.041 220.174 497.174 220.23 497.274 220.331C497.374 220.432 497.432 220.569 497.435 220.714V226.593C497.432 226.738 497.374 226.875 497.274 226.976C497.174 227.076 497.041 227.133 496.901 227.133C496.832 227.135 496.763 227.122 496.698 227.096C496.633 227.07 496.574 227.03 496.524 226.98C496.475 226.93 496.435 226.869 496.408 226.803C496.381 226.737 496.367 226.665 496.367 226.593V220.714Z" fill="#EBEBEB"/>
<path d="M498.93 223.554C498.948 222.598 499.326 221.688 499.985 221.019C500.643 220.35 501.528 219.975 502.45 219.975C503.251 219.968 504.032 220.238 504.668 220.742C504.78 220.837 504.851 220.972 504.869 221.12C504.887 221.268 504.85 221.417 504.764 221.537C504.677 221.658 504.547 221.738 504.404 221.759C504.26 221.78 504.114 221.741 503.997 221.651C503.558 221.289 503.011 221.098 502.45 221.111C501.808 221.113 501.192 221.367 500.724 221.821C500.28 222.281 500.029 222.904 500.025 223.554C500.026 223.876 500.088 224.195 500.208 224.493C500.328 224.79 500.503 225.06 500.724 225.287C501.192 225.741 501.808 225.995 502.45 225.997C503.011 226.01 503.558 225.819 503.997 225.457C504.115 225.375 504.258 225.34 504.399 225.358C504.54 225.376 504.67 225.447 504.764 225.556C504.85 225.676 504.887 225.826 504.869 225.974C504.851 226.122 504.78 226.257 504.668 226.352C504.148 226.775 503.525 227.04 502.867 227.115C502.21 227.191 501.545 227.074 500.949 226.779C500.352 226.484 499.846 226.021 499.49 225.444C499.133 224.866 498.939 224.197 498.93 223.511V223.554Z" fill="#EBEBEB"/>
<path d="M510.721 221.282H509.201V226.593C509.201 226.736 509.146 226.874 509.048 226.975C508.951 227.076 508.818 227.133 508.68 227.133C508.541 227.133 508.407 227.076 508.307 226.976C508.208 226.875 508.15 226.738 508.146 226.593V221.282H506.626C506.485 221.274 506.353 221.211 506.256 221.106C506.159 221 506.105 220.859 506.105 220.714C506.105 220.57 506.16 220.433 506.258 220.332C506.356 220.231 506.488 220.174 506.626 220.174H510.735C510.874 220.174 511.008 220.23 511.108 220.331C511.208 220.432 511.265 220.569 511.269 220.714C511.265 220.863 511.207 221.006 511.105 221.111C511.003 221.217 510.865 221.278 510.721 221.282Z" fill="#EBEBEB"/>
<path d="M512.898 220.714C512.898 220.642 512.912 220.57 512.939 220.504C512.966 220.437 513.006 220.377 513.056 220.327C513.105 220.277 513.164 220.237 513.229 220.211C513.294 220.185 513.363 220.172 513.433 220.174C513.572 220.174 513.706 220.23 513.806 220.331C513.905 220.432 513.963 220.569 513.967 220.714V226.593C513.963 226.738 513.905 226.875 513.806 226.976C513.706 227.076 513.572 227.133 513.433 227.133C513.363 227.135 513.294 227.122 513.229 227.096C513.164 227.07 513.105 227.03 513.056 226.98C513.006 226.93 512.966 226.869 512.939 226.803C512.912 226.737 512.898 226.665 512.898 226.593V220.714Z" fill="#EBEBEB"/>
<path d="M521.047 221.04C521.671 221.717 522.02 222.617 522.02 223.554C522.02 224.491 521.671 225.391 521.047 226.068C520.758 226.4 520.405 226.666 520.011 226.85C519.617 227.033 519.191 227.13 518.759 227.133C518.317 227.132 517.88 227.037 517.475 226.853C517.07 226.67 516.705 226.403 516.404 226.068C515.797 225.381 515.461 224.485 515.461 223.554C515.461 222.623 515.797 221.726 516.404 221.04C516.705 220.705 517.07 220.438 517.475 220.254C517.88 220.071 518.317 219.976 518.759 219.975C519.191 219.978 519.617 220.075 520.011 220.258C520.405 220.441 520.758 220.708 521.047 221.04ZM520.923 223.554C520.923 222.909 520.694 222.288 520.28 221.807C520.085 221.59 519.85 221.417 519.588 221.297C519.327 221.178 519.045 221.114 518.759 221.111C518.467 221.11 518.178 221.172 517.909 221.291C517.641 221.411 517.399 221.587 517.198 221.807C516.778 222.284 516.548 222.908 516.554 223.554C516.546 224.196 516.777 224.816 517.198 225.287C517.393 225.509 517.631 225.687 517.896 225.809C518.162 225.931 518.449 225.994 518.739 225.994C519.029 225.994 519.316 225.931 519.581 225.809C519.847 225.687 520.085 225.509 520.28 225.287C520.695 224.812 520.924 224.194 520.923 223.554Z" fill="#EBEBEB"/>
<path d="M524.719 226.593C524.715 226.735 524.659 226.87 524.563 226.971C524.466 227.071 524.335 227.129 524.198 227.133C524.129 227.135 524.06 227.122 523.995 227.096C523.93 227.07 523.871 227.03 523.821 226.98C523.772 226.93 523.732 226.869 523.705 226.803C523.678 226.737 523.664 226.665 523.664 226.593V220.813C523.662 220.724 523.681 220.637 523.719 220.557C523.757 220.478 523.814 220.41 523.883 220.359C523.994 220.274 524.133 220.239 524.269 220.26C524.405 220.281 524.527 220.358 524.609 220.472L527.705 224.917V220.827C527.705 220.756 527.718 220.686 527.744 220.621C527.77 220.555 527.809 220.496 527.857 220.446C527.905 220.396 527.963 220.356 528.026 220.329C528.089 220.302 528.157 220.288 528.225 220.288C528.293 220.288 528.361 220.302 528.424 220.329C528.487 220.356 528.545 220.396 528.593 220.446C528.641 220.496 528.68 220.555 528.706 220.621C528.732 220.686 528.746 220.756 528.746 220.827V226.607C528.746 226.75 528.691 226.888 528.593 226.989C528.496 227.09 528.363 227.147 528.225 227.147C528.149 227.144 528.075 227.125 528.006 227.091C527.938 227.057 527.877 227.008 527.828 226.948L524.76 222.531L524.719 226.593Z" fill="#EBEBEB"/>
<path d="M534.468 225.457H532.139L531.674 226.764C531.631 226.866 531.56 226.952 531.47 227.013C531.38 227.074 531.274 227.105 531.167 227.104H530.989C530.856 227.05 530.748 226.944 530.689 226.809C530.63 226.673 530.625 226.52 530.674 226.38L532.797 220.529C532.838 220.425 532.908 220.336 532.999 220.273C533.089 220.21 533.195 220.177 533.304 220.177C533.412 220.177 533.518 220.21 533.609 220.273C533.699 220.336 533.769 220.425 533.81 220.529L535.933 226.38C535.983 226.52 535.977 226.673 535.918 226.809C535.859 226.944 535.752 227.05 535.618 227.104H535.427C535.323 227.105 535.221 227.073 535.135 227.012C535.049 226.951 534.984 226.864 534.947 226.764L534.468 225.457ZM534.084 224.363L533.304 222.233L532.523 224.363H534.084Z" fill="#EBEBEB"/>
<path d="M541.69 226.309C541.733 226.449 541.721 226.6 541.657 226.73C541.593 226.861 541.482 226.959 541.347 227.005H541.142C541.01 227.009 540.88 226.969 540.772 226.891C540.641 226.808 540.532 226.69 540.457 226.551C540.311 226.172 540.246 225.765 540.265 225.358C540.264 225.206 540.221 225.059 540.142 224.932C540.072 224.809 539.973 224.706 539.854 224.633C539.689 224.528 539.509 224.452 539.32 224.406H538.184V226.565C538.163 226.695 538.099 226.813 538.002 226.898C537.906 226.983 537.783 227.03 537.656 227.03C537.529 227.03 537.407 226.983 537.31 226.898C537.213 226.813 537.149 226.695 537.129 226.565V220.685C537.129 220.542 537.184 220.405 537.281 220.304C537.379 220.202 537.511 220.146 537.649 220.146H539.375C539.795 220.149 540.204 220.287 540.547 220.539C540.89 220.791 541.149 221.147 541.291 221.557C541.433 221.967 541.45 222.413 541.34 222.833C541.23 223.254 540.998 223.629 540.676 223.909C540.803 224.015 540.914 224.139 541.005 224.278C541.214 224.596 541.324 224.973 541.32 225.358C541.305 225.551 541.305 225.746 541.32 225.94C541.405 225.968 541.483 226.015 541.547 226.079C541.611 226.143 541.66 226.222 541.69 226.309ZM540.32 222.304C540.32 222.033 540.216 221.773 540.031 221.581C539.846 221.389 539.596 221.282 539.334 221.282H538.142V223.327H539.334C539.466 223.331 539.597 223.307 539.72 223.257C539.843 223.208 539.955 223.133 540.049 223.038C540.144 222.942 540.219 222.828 540.27 222.702C540.321 222.576 540.348 222.441 540.348 222.304H540.32Z" fill="#EBEBEB"/>
<path d="M547.672 221.111L545.7 223.952V226.65C545.7 226.722 545.686 226.793 545.659 226.86C545.632 226.926 545.593 226.986 545.543 227.037C545.493 227.087 545.434 227.126 545.369 227.153C545.305 227.179 545.235 227.192 545.166 227.19C545.029 227.186 544.899 227.128 544.802 227.028C544.705 226.927 544.649 226.792 544.645 226.65V223.952L542.701 221.111C542.656 221.056 542.622 220.991 542.602 220.921C542.583 220.851 542.577 220.778 542.586 220.706C542.595 220.634 542.619 220.565 542.655 220.502C542.691 220.44 542.739 220.386 542.796 220.344C542.853 220.301 542.917 220.27 542.985 220.253C543.053 220.236 543.123 220.233 543.192 220.245C543.261 220.257 543.327 220.283 543.387 220.322C543.446 220.361 543.496 220.412 543.536 220.472L545.166 222.801L546.809 220.472C546.892 220.354 547.016 220.275 547.154 220.251C547.292 220.227 547.434 220.261 547.549 220.344C547.657 220.434 547.729 220.562 547.752 220.703C547.775 220.845 547.746 220.99 547.672 221.111Z" fill="#EBEBEB"/>
</svg>
