<svg width="151" height="151" viewBox="0 0 151 151" fill="none" xmlns="http://www.w3.org/2000/svg">
<g clip-path="url(#clip0_1325_7767)">
<path d="M46.2705 106.149C44.9441 106.652 43.3894 105.646 42.841 104.183C42.5617 103.514 42.4256 102.794 42.4415 102.069C42.4575 101.345 42.6251 100.632 42.9337 99.9759C40.117 101.092 37.165 101.83 34.1547 102.171C33.2149 104.022 32.987 106.153 33.5144 108.161C33.7659 109.166 34.2868 110.083 35.0209 110.814C35.3776 111.16 35.8171 111.408 36.2973 111.537C36.7775 111.665 37.2825 111.667 37.7642 111.545C41.3323 110.447 43.0693 108.069 46.2705 106.149ZM78.2795 93.1169C76.9538 93.666 75.4443 92.6597 74.85 91.2421C74.5488 90.5749 74.3893 89.8525 74.3814 89.1205C74.3735 88.3885 74.5174 87.6628 74.804 86.9893C72.062 88.1922 69.1712 89.0226 66.2088 89.4584C65.3434 91.386 65.1975 93.56 65.7975 95.586C66.0725 96.5894 66.6278 97.4937 67.3982 98.193C67.7676 98.5164 68.2132 98.7406 68.6931 98.8446C69.1729 98.9485 69.6713 98.9288 70.1415 98.7873C73.5695 97.5979 75.2161 95.1288 78.2795 93.1169Z" fill="black"/>
<path d="M81.709 82.6458C61.5892 92.7061 41.4272 102.949 20.3892 111.866C15.6792 113.192 10.9692 107.887 10.6031 104.412C8.40987 84.4538 4.92739 64.6582 0.177481 45.1495C-0.188466 43.4893 0.024755 41.7538 0.781705 40.2316C1.53866 38.7093 2.79375 37.4919 4.33838 36.7818C25.9677 29.0995 48.0557 21.5542 70.9633 15.3355C74.3009 14.238 80.9317 18.0788 81.3429 22.7436C82.8976 39.9371 84.4523 57.0846 86.3271 74.1899C86.9229 77.7987 84.8184 81.5484 81.709 82.6458Z" fill="#643CFF"/>
<path d="M85.0925 85.3889C63.83 94.5317 42.5668 103.908 20.4343 111.865C17.1879 112.779 14.3075 110.676 13.9414 107.2C11.7737 87.1283 8.41435 67.2028 3.88113 47.5295C3.51881 45.8638 3.73883 44.1242 4.50446 42.6012C5.27009 41.0782 6.53499 39.8639 8.08798 39.161C29.6713 31.6135 51.7119 24.2054 74.5758 18.0778C77.9134 17.0233 80.9783 19.1323 81.4348 22.6967C84.1329 40.8498 86.7391 58.9125 89.7573 76.8833C90.3057 80.4958 88.2034 84.2914 85.0925 85.3889Z" fill="#9778FF"/>
<path d="M86.6028 91.4259C64.8823 99.3824 43.0248 107.338 20.4351 114.015C15.9081 115.799 16.5032 121.472 18.5603 122.52C30.2664 128.648 42.1555 134.821 54.4567 140.628C56.6057 141.634 60.9956 141.314 64.1502 139.897C85.6424 130.065 105.899 119.136 125.882 108.665C128.854 107.158 131.964 100.846 127.529 99.4283C116.874 96.6843 106.311 93.6668 95.7938 90.5115C93.69 89.597 89.575 90.0083 86.6028 91.4259Z" fill="#643CFF"/>
<path d="M87.2413 86.3036C65.7039 95.6776 44.0746 105.28 21.5768 113.465C18.4215 114.7 17.5093 116.529 19.5649 117.58C31.225 123.662 43.066 129.744 55.2775 135.551C57.4273 136.558 61.7253 136.191 64.8806 134.774C86.1438 124.897 106.309 114.06 126.292 103.771C129.265 102.308 129.95 100.433 127.847 99.6095C117.238 95.1745 106.767 90.42 96.4323 85.4343C94.3285 84.5199 90.2588 84.886 87.2413 86.3036Z" fill="#9778FF"/>
<path d="M98.4908 94.307L104.801 91.7008C103.612 91.1524 102.423 90.5574 101.234 90.009L100.686 89.7348C99.973 89.3783 99.1924 89.1776 98.396 89.146C97.5997 89.1144 96.8057 89.2528 96.0669 89.5518C94.9235 90.009 93.7808 90.4662 92.6374 90.9694C92.5003 91.0153 92.3173 91.1065 92.1802 91.1524C92.6833 91.4266 93.1865 91.6548 93.6867 91.8838C95.2896 92.7064 96.8902 93.5289 98.4908 94.307ZM106.081 92.2943C103.977 93.1636 101.828 94.0321 99.7254 94.9013C101.463 95.7698 103.246 96.639 104.984 97.5075C107.179 96.639 109.374 95.8157 111.569 94.9925C110.471 94.4441 109.374 93.895 108.596 93.5289C107.773 93.1176 106.905 92.7064 106.081 92.2943ZM111.752 96.044C109.922 96.7302 108.093 97.4616 106.264 98.1478C107.499 98.7421 108.687 99.3364 109.922 99.9307C113.032 98.376 115.181 97.3697 115.775 97.0503C114.998 96.6842 113.947 96.1359 112.849 95.6327C112.437 95.7698 112.117 95.9069 111.752 96.044ZM80.52 108.802C82.3029 109.857 84.0866 110.859 85.9155 111.82C89.8941 109.854 93.8245 107.933 97.4401 106.15L93.0502 103.543C88.8418 105.235 84.6809 107.019 80.52 108.802ZM73.9811 104.777C78.142 102.994 82.3489 101.165 86.5098 99.3816C85.1257 98.5094 83.7692 97.5943 82.4423 96.6375C82.0353 96.3631 81.6388 96.0734 81.2537 95.769C77.0928 97.5527 72.9311 99.3846 68.7702 101.165C69.4564 101.622 70.1419 102.125 70.8281 102.582C71.8307 103.381 72.8839 104.114 73.9811 104.777ZM87.5161 100.069C83.3349 101.856 79.1584 103.654 74.9867 105.464C76.4503 106.378 77.913 107.293 79.3766 108.162C83.5354 106.338 87.712 104.556 91.906 102.814L89.0249 101.03C88.5676 100.754 88.0645 100.388 87.5161 100.069ZM61.9549 109.899C65.6126 108.344 69.2252 106.79 72.8377 105.234C71.6943 104.503 70.5968 103.728 69.4993 102.994C68.8591 102.537 68.2188 102.125 67.5793 101.714C63.6919 103.359 59.8051 105.006 55.8725 106.61C55.5983 106.747 55.2782 106.836 55.004 106.975C55.959 107.433 56.9356 107.845 57.9303 108.21C59.2568 108.756 60.5825 109.351 61.9549 109.899ZM73.8915 105.967C73.1601 106.287 72.4279 106.607 71.6506 106.928C68.8636 108.116 66.0262 109.305 63.2369 110.494C65.0206 111.271 66.8043 112.095 68.6331 112.872C70.279 112.14 71.9707 111.409 73.6173 110.677L78.2814 108.619C77.5552 108.209 76.8387 107.782 76.1324 107.339C75.398 106.928 74.6666 106.424 73.8915 105.967ZM71.2371 112.872C70.8258 113.054 70.3686 113.237 69.9566 113.466C72.1515 114.427 74.3005 115.432 76.4954 116.439C79.2395 115.112 82.0747 113.741 84.864 112.371C83.04 111.368 81.2261 110.346 79.4225 109.307C76.69 110.486 73.9615 111.674 71.2371 112.872ZM49.5618 115.067C50.6164 114.655 51.6649 114.198 52.7171 113.787C55.3693 112.689 57.9755 111.592 60.6262 110.494C59.2086 109.9 57.745 109.305 56.3282 108.71C55.4356 108.334 54.5513 107.937 53.676 107.522C50.1087 108.985 46.588 110.585 43.0214 112.095C44.3471 112.734 45.7188 113.375 47.0889 113.97L49.5618 115.067ZM61.9549 111.043C58.2741 112.586 54.5852 114.111 50.8883 115.615C52.2607 116.21 53.5864 116.759 54.9558 117.399C55.596 117.673 56.2363 117.993 56.8765 118.268C60.3433 116.583 63.8502 114.982 67.394 113.466C66.4337 113.054 65.5192 112.597 64.5588 112.186C63.6474 111.775 62.7774 111.406 61.9549 111.043ZM61.0864 117.399C60.0808 117.856 59.0285 118.359 58.023 118.817C59.5294 119.502 60.9953 120.234 62.504 120.966C63.2354 121.331 63.9675 121.651 64.6989 122.02C67.9454 120.514 71.512 118.82 75.2164 117.036C73.0215 116.03 70.8266 115.07 68.6316 114.064C66.1074 115.155 63.5923 116.267 61.0864 117.399ZM87.5621 98.9711C89.8971 97.9647 92.2261 96.9584 94.5582 95.9988C95.4655 95.6367 96.3651 95.2555 97.2563 94.8554L90.9456 91.7C88.0647 92.8892 85.1838 94.1237 82.3029 95.4037L83.8094 96.5012C85.047 97.2785 86.2816 98.1485 87.5621 98.9711ZM88.6136 99.6106C90.0764 100.526 91.5859 101.44 93.0487 102.355L93.7349 102.08C97.0732 100.708 100.363 99.3823 103.703 98.0559C101.966 97.1874 100.228 96.3189 98.4449 95.4497C95.1984 96.8213 91.906 98.1937 88.6136 99.6106ZM94.1461 103.041C95.2896 103.726 96.387 104.367 97.5304 105.007C97.8506 105.19 98.1707 105.373 98.536 105.555C102.423 103.635 105.944 101.897 108.78 100.48C107.5 99.8855 106.265 99.2452 104.985 98.6509C101.371 100.069 97.7587 101.532 94.1461 103.041ZM32.415 120.005H32.4602C33.2835 120.371 34.1068 120.783 34.9301 121.149C39.3652 119.228 43.801 117.399 48.2361 115.569C46.0412 114.609 43.8922 113.649 41.7432 112.597C40.3715 113.192 38.9562 113.787 37.5823 114.335C35.9241 115.023 34.2467 115.663 32.5521 116.256C32.192 116.412 31.8834 116.667 31.662 116.991C31.4406 117.315 31.3155 117.695 31.3012 118.087C31.2869 118.48 31.3838 118.868 31.581 119.207C31.7781 119.547 32.0673 119.823 32.415 120.005ZM49.5166 116.165C45.0498 118 40.5989 119.875 36.1647 121.788C38.4508 122.886 40.7368 123.983 42.9777 125.081C46.8645 123.481 50.5681 121.423 54.2266 119.548L55.5983 118.862C54.8669 118.542 54.1355 118.176 53.3581 117.856C52.1228 117.261 50.7971 116.713 49.5166 116.165ZM51.8487 121.926C49.3336 123.207 46.8185 124.532 44.2123 125.63C46.2242 126.635 48.2798 127.596 50.3399 128.602C51.6656 127.962 56.7877 125.721 63.5096 122.566C61.2687 121.511 59.0737 120.417 56.8811 119.411C55.187 120.234 53.4952 121.103 51.8487 121.926Z" fill="#643CFF"/>
<path d="M77.6848 79.4911C60.8122 86.9904 43.9396 94.5815 26.6535 101.532C23.4522 102.538 20.5711 100.434 20.1139 96.9588C18.0568 82.0981 15.5907 67.4167 12.4775 52.8791C11.7921 49.4496 13.7121 45.7 16.8215 44.5106C34.0149 38.6579 51.4374 32.8504 69.2711 27.6832C72.5176 26.5857 75.581 28.6895 76.0842 32.2561C78.188 45.1968 80.2451 58.1375 82.3948 71.0782C82.8972 74.5988 80.7942 78.3936 77.6848 79.4911ZM39.6394 30.7007C39.3938 31.0656 39.2626 31.4954 39.2626 31.9353C39.2626 32.3751 39.3938 32.8049 39.6394 33.1698C39.7835 33.3595 39.9528 33.5288 40.1425 33.673C40.2999 33.8086 40.4887 33.9028 40.6917 33.9472C41.03 33.9973 41.3746 33.9159 41.6548 33.7198C41.935 33.5236 42.1294 33.2277 42.1981 32.8926C42.5665 31.478 40.8288 29.1912 39.6394 30.7007Z" fill="white"/>
<path d="M18.3788 59.7816L17.9668 58.7761C23.8654 56.3521 29.81 54.3862 36.0747 52.2824C40.2564 50.91 44.4179 49.4771 48.5582 47.9844L48.9242 48.9907C44.7662 50.4766 40.5894 51.9094 36.3948 53.2887C30.1294 55.3925 24.2307 57.3585 18.3788 59.7816Z" fill="#FF465A"/>
<path d="M24.7559 59.7532L28.6298 58.5059L28.9522 59.5069L25.0782 60.7543L24.7559 59.7532Z" fill="#FDB849"/>
<path d="M30.3516 58.1787L36.0687 56.2451L36.4204 57.2846L30.7033 59.2182L30.3516 58.1787Z" fill="#643CFF"/>
<path d="M38.3599 56.5819L38.0398 55.5274C41.2863 54.567 44.5328 53.4236 47.734 52.189L48.1453 53.1954C44.9402 54.4817 41.6745 55.6119 38.3599 56.5819ZM31.409 61.8863L31.043 60.8799C42.5938 56.6977 54.2438 52.7945 65.9828 49.1738L66.3029 50.1802C54.593 53.7927 42.8869 57.7706 31.409 61.8863Z" fill="#FFD340"/>
<path d="M25.739 70.0703L25.4648 69.0157C26.4964 68.7508 27.4938 68.3673 28.4371 67.873L28.8943 68.8327C27.8942 69.3664 26.8353 69.7817 25.739 70.0703Z" fill="#FDB849"/>
<path d="M30.3184 67.1547L36.5175 64.9326L36.8874 65.9661L30.6882 68.1881L30.3184 67.1547Z" fill="#643CFF"/>
<path d="M38.3602 65.5894L38.04 64.5348C41.1946 63.6204 44.3959 62.5689 47.5053 61.5166L47.8713 62.5229C44.716 63.6234 41.5607 64.6749 38.3602 65.5894Z" fill="#FDB849"/>
<path d="M33.2384 70.5725L32.873 69.5669C43.8918 65.5746 55.0073 61.8542 66.2092 58.4092L66.5293 59.4155C55.3399 62.8528 44.2394 66.573 33.2384 70.5725ZM33.3288 72.5678L47.2818 67.4526L47.6433 68.4393L33.6903 73.5553L33.3288 72.5678Z" fill="#FFD340"/>
<path d="M21.3145 81.5206L40.9906 73.5859L41.4011 74.6028L21.7242 82.5382L21.3145 81.5206Z" fill="#FF465A"/>
<path d="M27.2549 83.3534L30.2339 82.1836L30.6347 83.205L27.6556 84.3748L27.2549 83.3534Z" fill="#FDB849"/>
<path d="M32.6443 82.5571L32.3242 81.5026C34.6733 80.8009 36.9789 79.9614 39.2292 78.9883L39.6404 79.9939C37.3711 81.0107 35.0334 81.8672 32.6443 82.5571Z" fill="#643CFF"/>
<path d="M33.2843 86.0754L32.873 85.0699C43.0368 80.9296 53.2656 76.9507 63.5556 73.1348L63.9216 74.1411C53.6436 77.9488 43.4298 81.9275 33.2843 86.0754ZM33.9246 89.0937L33.5133 88.0873C35.8483 87.0818 38.2685 86.0754 40.6924 85.207L41.0578 86.2125C38.6348 87.127 36.2571 88.0873 33.9246 89.0937Z" fill="#FFD340"/>
<path d="M92.2716 79.7694L98.7653 22.1985C98.9452 19.7463 100.043 17.4521 101.84 15.7739C103.637 14.0956 106.001 13.1567 108.46 13.1445L142.069 10.0352C149.339 12.276 151.168 18.2206 150.528 23.9822L143.487 86.4906C143.21 88.9349 142.019 91.1841 140.153 92.7871C138.287 94.3901 135.884 95.2282 133.426 95.1333L103.704 93.8987C98.2629 93.6667 92.0456 85.9844 92.2716 79.7694Z" fill="#008C6E"/>
<path d="M92.2711 79.769L96.6158 18.4944C96.7955 16.0421 97.8934 13.7479 99.6904 12.0696C101.487 10.3913 103.851 9.45243 106.31 9.44043H138.731C140.101 9.44013 141.457 9.7299 142.707 10.2907C143.958 10.8515 145.075 11.6706 145.986 12.6942C146.898 13.7178 147.582 14.9227 147.995 16.2296C148.407 17.5366 148.538 18.916 148.379 20.2773L141.337 82.782C141.061 85.2262 139.87 87.4754 138.004 89.0784C136.139 90.6814 133.736 91.5195 131.278 91.4247L101.555 90.1901C100.256 90.1296 98.9827 89.8102 97.8091 89.2508C96.6355 88.6914 95.5856 87.9032 94.7208 86.9325C93.856 85.9617 93.1938 84.828 92.7732 83.5979C92.3525 82.3678 92.1818 81.066 92.2711 79.769Z" fill="#14D29B"/>
<path d="M112.346 81.227C112.117 81.8468 112.117 82.528 112.346 83.1478C113.9 87.0804 120.805 85.3886 119.251 80.4956C119.139 80.0418 118.925 79.6199 118.623 79.2629C118.322 78.9059 117.942 78.6235 117.513 78.4377C115.455 77.6589 113.032 79.261 112.346 81.227ZM98.2158 66.1343L101.554 20.7727C101.828 17.023 105.213 14.0967 109.282 14.0967L135.21 14.1878C139.874 14.1878 143.486 17.9375 142.983 22.2362L137.496 68.5123C137.039 72.2619 133.517 75.0512 129.447 74.8681L105.67 73.8618C101.325 73.6818 97.9416 70.2071 98.2158 66.1343Z" fill="white"/>
<path d="M99.3588 66.8686L102.697 21.5077C102.971 17.7581 106.355 14.831 110.425 14.831L136.352 14.9229C137.692 14.9201 139.012 15.2501 140.194 15.8833C138.767 14.7794 137.013 14.1837 135.209 14.1908L109.282 14.0996C105.215 14.0996 101.825 16.98 101.554 20.7756L98.2154 66.1342C98.137 67.5233 98.4677 68.9048 99.1668 70.1076C99.8658 71.3105 100.902 72.2818 102.148 72.9013C101.226 72.2002 100.489 71.2837 100.003 70.2321C99.5166 69.1804 99.2955 68.0256 99.3588 66.8686Z" fill="black"/>
<path d="M107.133 23.7957L138.045 23.5215L135.301 48.1223L105.075 47.6192L107.133 23.7957Z" fill="#FDB849"/>
<path d="M112.072 44.2818C117.513 42.0409 123.597 42.7271 129.265 41.4466C131.827 40.8756 134.261 39.8368 136.445 38.3824L137.404 29.8301C134.952 31.9205 132.15 33.5614 129.128 34.6772C124.464 36.369 119.571 36.735 114.632 36.781C112.982 36.7581 111.332 36.8497 109.694 37.0552C108.415 37.2715 107.16 37.6085 105.944 38.0615L105.121 47.5742L107.27 47.6194C108.613 46.1753 110.251 45.037 112.072 44.2818Z" fill="#FFD340"/>
<path d="M105.807 64.4473L130.683 65.2698L130.454 67.7397L105.441 66.7793L105.807 64.4473Z" fill="#FDB849"/>
<path d="M113.261 50.7745L125.012 50.7285C125.446 50.729 125.875 50.8163 126.275 50.9854C126.675 51.1545 127.036 51.4019 127.339 51.713C127.641 52.0241 127.879 52.3927 128.037 52.797C128.194 53.2012 128.27 53.633 128.258 54.0669L128.212 54.616C128.197 55.0372 128.098 55.4511 127.921 55.8338C127.745 56.2164 127.494 56.5602 127.184 56.8452C126.873 57.1302 126.509 57.3507 126.113 57.4939C125.716 57.6371 125.295 57.7001 124.875 57.6794L113.124 57.1763C112.638 57.1505 112.163 57.0162 111.736 56.7831C111.308 56.5501 110.938 56.2242 110.653 55.8294C110.368 55.4347 110.175 54.981 110.088 54.5019C110.002 54.0227 110.023 53.5302 110.152 53.0605C110.37 52.4046 110.786 51.8324 111.343 51.4229C111.9 51.0135 112.57 50.7869 113.261 50.7745Z" fill="#9778FF"/>
<path d="M74.484 72.998C81.1607 67.0993 85.4128 65.5446 91.2203 63.6698C92.301 65.7693 93.1593 67.976 93.7813 70.2539C93.8391 70.4884 93.9679 70.6993 94.1501 70.8577C94.3323 71.0162 94.559 71.1146 94.7992 71.1393C95.0395 71.164 95.2815 71.1139 95.4921 70.9959C95.7028 70.8779 95.8719 70.6977 95.9762 70.4799C98.2872 66.2585 100.9 62.2098 103.796 58.3655C103.968 58.1285 104.088 57.8573 104.147 57.5701C104.206 57.2829 104.203 56.9864 104.138 56.7005C104.073 56.4146 103.948 56.1459 103.77 55.9125C103.593 55.6791 103.368 55.4864 103.109 55.3473C98.1252 52.6951 92.775 50.18 88.202 47.619C87.9843 47.5016 87.7357 47.454 87.4899 47.4828C87.2442 47.5115 87.0133 47.6152 86.8285 47.7797C86.6438 47.9443 86.5141 48.1617 86.4572 48.4024C86.4002 48.6432 86.4188 48.8956 86.5103 49.1255C87.3415 51.346 88.0139 53.6227 88.5222 55.9386C80.6131 58.1335 74.9412 61.1058 68.9055 68.0108C68.466 68.5062 68.231 69.15 68.2479 69.812C68.2648 70.4741 68.5324 71.105 68.9967 71.5773C69.5458 72.1257 70.0941 72.6748 70.6432 73.178C71.7407 74.2325 73.3414 74.0035 74.484 72.998Z" fill="#D70A32"/>
</g>
<defs>
<clipPath id="clip0_1325_7767">
<rect width="150.648" height="150.648" fill="white"/>
</clipPath>
</defs>
</svg>
