<!-- icon666.com - MILLIONS OF FREE VECTOR ICONS --><svg version="1.1" id="Capa_1" xmlns="http://www.w3.org/2000/svg" xmlns:xlink="http://www.w3.org/1999/xlink" x="0px" y="0px" viewBox="0 0 512 512" style="enable-background:new 0 0 512 512;" xml:space="preserve"><g><path style="fill:#DD0025;" d="M262.2,272H255c-8.401,0-15,6.599-15,15v120c0,8.401-6.599,15-15,15s-15-6.599-15-15 s-6.599-15-15-15H75c-8.401,0-15-6.599-15-15V253.7l17.999-37.8L126,230.3l9,11.7l15,20.099l0.3-0.3L165,242l8.401-11.1l48.898-15 c19.501,5.099,37.202,15.899,51,31.199C282.299,256.7,275.099,272,262.2,272z"></path><path style="fill:#DD0025;" d="M262.2,272H255c-8.401,0-15,6.599-15,15v120c0,8.401-6.599,15-15,15s-15-6.599-15-15 s-6.599-15-15-15h-44.7V261.799L165,242l8.401-11.1l48.898-15c19.501,5.099,37.202,15.899,51,31.199 C282.299,256.7,275.099,272,262.2,272z"></path></g><g><path style="fill:#FEC478;" d="M195,362h-15l-30,30.253V437c0,8.291,6.709,15,15,15h60c8.291,0,15-6.709,15-15v-30 C240,382.186,219.814,362,195,362z"></path><path style="fill:#FEC478;" d="M195,212h-90c-9.6,0-18.6,1.199-27.299,3.6l0.298,0.3L90,232.099l47.999,63.9 c3.001,4.2,7.5,6.301,12.301,6c4.499,0,8.699-1.8,11.7-6l60.298-80.099C213.6,213.199,204.3,212,195,212z"></path></g><path style="fill:#FF3B4E;" d="M180,362v75c0,8.284-6.716,15-15,15H30c-16.569,0-30-13.431-30-30V317c0-45.3,28.5-84.3,69.3-98.401 c0.901-0.599,1.5-0.899,2.4-0.899c2.1-0.901,4.2-1.5,6.299-1.8L90,232.099V362H180z"></path><path style="fill:#FEDBAB;" d="M240,120v26.8c0,48.001-35.4,90.101-80.7,94.6c-2.999,0.3-6,0.601-9,0.601H150 c-22.5,0-43.801-8.101-60.3-23.101C70.8,201.799,60,176.499,60,151V99.901c0-8.401,6.599-15,15-15l75,2.399l43.5,1.501L240,120z"></path><path style="fill:#FEB756;" d="M195,212c9.3,0,18.6,1.199,27.299,3.9L162.001,296c-3.001,4.2-7.202,6-11.7,6v-90H195z"></path><path style="fill:#DD0025;" d="M180,362v75c0,8.401-6.599,15-15,15h-14.7v-90H180z"></path><path style="fill:#E5E5E5;" d="M467,242H255c-24.901,0-45,20.099-45,45v150c0,8.401,6.599,15,15,15h272c8.401,0,15-6.599,15-15V287 C512,262.099,491.901,242,467,242z"></path><path style="fill:#C8C6CD;" d="M512,287v150c0,8.401-6.599,15-15,15H361V242h106C491.901,242,512,262.099,512,287z"></path><path style="fill:#57555C;" d="M497,452H15c-8.401,0-15,6.599-15,15v30c0,8.401,6.599,15,15,15h482c8.401,0,15-6.599,15-15v-30 C512,458.599,505.401,452,497,452z"></path><path style="fill:#3C3A41;" d="M512,467v30c0,8.401-6.599,15-15,15H150.3v-60H497C505.401,452,512,458.599,512,467z"></path><path style="fill:#FEC478;" d="M240,120v26.8c0,48.001-35.4,90.101-80.7,94.6c-2.999,0.3-6,0.601-9,0.601H150V87.299l43.5,1.501 L240,120z"></path><path style="fill:#57555C;" d="M150.3,1.199C145.201,0.3,140.099,0,135,0H15C6.599,0,0,6.599,0,15c0,57.9,47.1,105,105,105h135v-15 C240,52.2,201,8.699,150.3,1.199z"></path><path style="fill:#3C3A41;" d="M240,105v15h-89.7V1.199C201,8.699,240,52.2,240,105z"></path><path style="fill:#AEADB3;" d="M391,347c0,8.401-6.599,15-15,15h-30c-8.401,0-15-6.599-15-15s6.599-15,15-15h30 C384.401,332,391,338.599,391,347z"></path><path style="fill:#8B8892;" d="M391,347c0,8.401-6.599,15-15,15h-15v-30h15C384.401,332,391,338.599,391,347z"></path></svg>